<svg width="624" height="313" viewBox="0 0 624 313" fill="none" xmlns="http://www.w3.org/2000/svg">
<path d="M582.58 204.701C571.597 211.033 557.581 207.227 551.274 196.2C544.968 185.173 548.759 171.101 559.743 164.77C570.726 158.439 584.743 162.246 591.048 173.273C597.354 184.299 593.563 198.37 582.58 204.701ZM622.1 170.524L616.515 160.757L607.768 162.048L600.544 152.937L604.267 143.866L594.515 137.369L587.233 144.74L577.645 143.052L573.757 131.731L562.104 132.966L561.444 142.869L552.761 147.297L543.57 140.765L534.247 147.581L539.091 158.063L533.543 166.454L523.463 165.917L520.83 178.4L530.423 182.105L531.248 192.594L521.305 198.326L526.057 209.149L536.35 207.545L543.167 215.446L539.601 225.292L549.029 231.977L556.386 223.985L566.594 226.757L569.77 237.336L581.115 236.567L582.579 227.066L592.307 221.458L600.266 227.836L610.33 220.304L605.241 211.406L610.201 202.488L620.405 203.242L623.535 191.626L614.775 186.865L613.609 176.283L622.1 170.524" fill="#F3F2F1"/>
<path d="M90.7521 285.853C108.001 270.889 109.731 246.253 106.761 224.574C106.264 220.957 106.269 217.087 104.221 214.079C102.171 211.073 97.9343 209.31 94.8533 211.176C92.2971 212.723 91.449 215.982 90.2126 218.731C88.5687 222.39 85.8834 225.554 82.5662 227.744C80.386 229.182 77.6121 230.211 75.2089 229.188C71.9113 227.782 71.0989 223.493 70.7497 219.879C70.1005 213.144 69.4501 206.408 68.8009 199.674C68.452 196.06 68.0834 192.371 66.6129 189.059C65.1417 185.747 62.3422 182.819 58.8213 182.211C55.2993 181.604 51.2717 184.022 50.9125 187.632C50.7623 189.134 51.2178 190.631 51.272 192.14C51.3265 193.65 50.801 195.381 49.4256 195.945C48.0332 196.517 46.4889 195.643 45.305 194.697C41.2168 191.434 38.215 186.998 35.3799 182.571C32.5452 178.143 29.7682 173.597 25.9902 169.969C22.2129 166.34 17.2289 163.671 12.0468 163.911C6.86415 164.153 1.70326 167.913 0.923185 173.125C0.140997 178.353 3.6306 183.213 7.27389 187C12.6789 192.62 18.8853 197.443 25.6367 201.268C26.8535 201.959 28.1725 202.704 28.7436 203.997C29.7727 206.324 27.7459 208.95 25.459 209.987C22.8701 211.162 19.9317 211.183 17.161 211.805C14.3903 212.428 11.4789 213.984 10.6918 216.756C9.59724 220.6 13.07 224.15 16.3563 226.371C22.9363 230.819 30.2669 234.11 37.9266 236.06C40.6731 236.759 43.5454 237.323 45.8712 238.968C48.1967 240.615 49.8188 243.727 48.7907 246.403C47.762 249.084 44.5369 250.242 41.712 250.011C38.8878 249.783 36.2508 248.529 33.5064 247.802C28.3705 246.441 22.0212 247.444 19.2954 252.062C17.5043 255.096 17.7244 259.041 19.1224 262.293C20.5194 265.546 22.9521 268.219 25.4928 270.655C34.3758 279.166 45.2909 285.629 57.17 288.433C69.0474 291.237 79.7849 291.217 90.7521 285.853Z" fill="#F3F2F1"/>
<path d="M92.694 301.952C91.0229 293.415 88.0947 283.433 83.7572 272.796C79.4397 262.148 73.7432 250.87 67.3811 239.28C65.7802 236.389 64.1983 233.532 62.6391 230.715C61.0765 227.909 59.5266 225.125 57.8437 222.496C54.4986 217.222 50.8831 212.408 47.3084 207.946C43.7348 203.481 40.1808 199.374 36.8308 195.559C33.4703 191.748 30.2719 188.257 27.2215 185.199C21.1374 179.059 15.6561 174.699 11.772 171.86C9.83233 170.434 8.29148 169.377 7.23708 168.676C6.73027 168.342 6.33284 168.081 6.03355 167.884C5.76062 167.709 5.61748 167.625 5.6115 167.634C5.60412 167.644 5.7346 167.748 5.99556 167.942C6.28537 168.152 6.67188 168.432 7.16216 168.788C8.19019 169.525 9.70604 170.615 11.6204 172.071C15.4518 174.971 20.8666 179.373 26.8903 185.537C29.9114 188.607 33.082 192.108 36.419 195.93C39.7492 199.759 43.2821 203.873 46.8346 208.337C50.3868 212.799 53.9777 217.604 57.2961 222.853C58.9663 225.47 60.4998 228.23 62.0641 231.046C63.6215 233.861 65.2013 236.717 66.8012 239.606C73.1569 251.188 78.8559 262.43 83.1924 273.033C87.5464 283.625 90.5095 293.552 92.233 302.046" fill="#DADBD8"/>
<path d="M57.652 222.488C57.6974 222.491 57.7631 221.93 57.8451 220.911C57.9316 219.893 58.0083 218.418 58.0758 216.592C58.2151 212.944 58.2358 207.898 58.238 202.337C58.2397 196.771 58.3319 191.74 58.526 188.105C58.6185 186.286 58.7068 184.814 58.7821 183.799C58.8506 182.782 58.8672 182.217 58.8214 182.21C58.7757 182.205 58.673 182.76 58.5246 183.771C58.3709 184.78 58.2095 186.251 58.0583 188.071C57.7421 191.712 57.575 196.762 57.574 202.333C57.5856 207.821 57.5972 212.787 57.6056 216.582C57.5989 218.295 57.5919 219.74 57.5862 220.899C57.5852 221.919 57.6056 222.486 57.652 222.488" fill="#DADBD8"/>
<path d="M10.5097 218.601C10.5132 218.647 11.179 218.656 12.3772 218.631C13.5747 218.615 15.3076 218.581 17.4491 218.608C21.7326 218.628 27.6482 218.864 34.1638 219.412C40.6806 219.971 46.5561 220.729 50.7899 221.401C52.9107 221.721 54.6189 222.026 55.8017 222.231C56.9834 222.44 57.6411 222.534 57.652 222.489C57.6618 222.442 57.0207 222.262 55.8524 221.973C54.6829 221.69 52.9828 221.311 50.8662 220.928C46.6401 220.134 40.7527 219.299 34.2166 218.737C27.6827 218.19 21.7409 218.027 17.4452 218.131C15.2967 218.165 13.5607 218.27 12.3631 218.369C11.1663 218.474 10.5072 218.553 10.5097 218.601" fill="#DADBD8"/>
<path d="M83.1009 272C83.1226 272.007 83.2113 271.802 83.3597 271.401C83.5272 270.925 83.7311 270.343 83.9784 269.639C84.5084 268.108 85.2178 265.87 86.0584 263.095C87.7434 257.544 89.8303 249.804 92.0181 241.231C94.2078 232.655 96.2201 224.905 97.7867 219.328C98.5565 216.616 99.1904 214.385 99.6613 212.726C99.8621 212.007 100.027 211.414 100.162 210.927C100.269 210.514 100.315 210.294 100.293 210.285C100.271 210.278 100.183 210.485 100.034 210.885C99.8666 211.361 99.6631 211.942 99.4155 212.646C98.8861 214.178 98.1766 216.415 97.3357 219.19C95.6511 224.741 93.564 232.482 91.3753 241.058C89.1868 249.631 87.174 257.379 85.6075 262.958C84.8362 265.669 84.2034 267.902 83.7326 269.558C83.532 270.278 83.3671 270.872 83.232 271.358C83.1252 271.772 83.0787 271.992 83.1009 272" fill="#DADBD8"/>
<path d="M19.5972 258.478C19.5937 258.502 19.8128 258.566 20.233 258.667C20.7304 258.78 21.3406 258.917 22.0799 259.083C23.7839 259.449 26.0833 259.943 28.8811 260.543C34.6241 261.778 42.536 263.572 51.2765 265.568C60.0192 267.565 67.956 269.289 73.7261 270.404C76.6108 270.963 78.9493 271.389 80.571 271.652C81.3208 271.769 81.9384 271.864 82.4406 271.944C82.8693 272.003 83.0972 272.023 83.1007 271.999C83.1042 271.977 82.8848 271.912 82.4649 271.809C81.969 271.698 81.3584 271.561 80.6181 271.394C78.9144 271.029 76.6157 270.536 73.8179 269.935C68.075 268.702 60.1616 266.906 51.4189 264.909C42.6784 262.912 34.7433 261.188 28.9736 260.075C26.0882 259.516 23.7498 259.088 22.1266 258.826C21.3775 258.709 20.761 258.612 20.2574 258.535C19.8282 258.475 19.6021 258.456 19.5972 258.478" fill="#DADBD8"/>
<path d="M499.573 135.793C499.529 135.731 500.635 135.198 502.184 133.693C502.968 132.954 503.791 131.903 504.537 130.57C505.274 129.236 505.89 127.575 506.125 125.666C506.354 123.767 506.235 121.608 505.468 119.483C504.695 117.379 503.396 115.251 501.437 113.644C500.485 112.815 499.371 112.129 498.161 111.606C496.959 111.064 495.643 110.702 494.28 110.564C491.556 110.225 488.647 110.826 486.114 112.255C483.604 113.732 481.62 115.951 480.538 118.484C479.969 119.736 479.618 121.06 479.477 122.375C479.317 123.688 479.346 125 479.579 126.243C479.974 128.753 481.149 130.952 482.571 132.683C484.012 134.419 485.809 135.611 487.558 136.37C489.318 137.128 491.059 137.432 492.577 137.465C494.1 137.489 495.419 137.306 496.449 136.998C498.525 136.413 499.542 135.724 499.573 135.793C499.577 135.8 499.514 135.841 499.388 135.915C499.235 136 499.048 136.104 498.819 136.232C498.57 136.375 498.255 136.54 497.861 136.686C497.474 136.845 497.029 137.041 496.499 137.174C495.461 137.513 494.125 137.728 492.574 137.728C491.024 137.719 489.242 137.434 487.43 136.676C485.629 135.918 483.771 134.711 482.275 132.936C480.798 131.167 479.574 128.907 479.153 126.318C478.907 125.035 478.872 123.68 479.032 122.323C479.174 120.963 479.533 119.593 480.117 118.298C481.232 115.676 483.284 113.374 485.88 111.848C488.501 110.367 491.516 109.75 494.332 110.106C495.74 110.252 497.1 110.63 498.341 111.193C499.589 111.738 500.737 112.453 501.716 113.312C503.73 114.983 505.057 117.183 505.834 119.355C506.608 121.547 506.71 123.766 506.454 125.708C506.192 127.662 505.539 129.351 504.765 130.7C503.983 132.045 503.125 133.095 502.311 133.824C501.929 134.217 501.537 134.503 501.203 134.759C500.879 135.027 500.58 135.217 500.33 135.36C500.105 135.495 499.922 135.604 499.771 135.694C499.643 135.767 499.577 135.8 499.573 135.793" fill="#DADBD8"/>
<path d="M523.069 115.473C523.069 115.473 522.973 115.549 522.765 115.696C522.543 115.852 522.232 116.069 521.823 116.355C520.965 116.949 519.709 117.818 518.061 118.957L518.091 118.89C518.287 120.599 518.531 122.715 518.813 125.178L518.762 125.101C520.302 125.932 522.062 126.881 523.979 127.914L524.062 127.959L524.038 128.052C523.483 130.135 522.861 132.464 522.196 134.962L522.166 135.073L522.052 135.065C520.158 134.929 518.119 134.783 515.983 134.63L516.128 134.552C515.217 136.198 514.221 137.995 513.19 139.86L513.189 139.698C514.127 141.331 515.158 143.128 516.223 144.983L516.3 145.117L516.176 145.21C514.32 146.604 512.292 148.126 510.2 149.698L510.085 149.784L509.973 149.694C508.511 148.527 506.892 147.232 505.235 145.909L505.453 145.925C503.666 146.959 501.69 148.1 499.673 149.266L499.772 149.122C499.506 150.865 499.209 152.802 498.907 154.771L498.882 154.936L498.716 154.947C496.624 155.09 494.317 155.249 491.971 155.41L491.802 155.422L491.752 155.257C491.164 153.305 490.516 151.153 489.859 148.971L490.012 149.119C488.124 148.607 486.045 148.044 483.941 147.475L484.164 147.411C482.799 148.894 481.303 150.52 479.792 152.165L479.657 152.312L479.495 152.197C477.739 150.953 475.823 149.595 473.888 148.224L473.744 148.123L473.804 147.957C474.469 146.121 475.193 144.119 475.922 142.102L475.964 142.334C474.688 140.856 473.305 139.253 471.91 137.638L472.122 137.715C470.19 138.017 468.104 138.343 466.003 138.67L465.824 138.698L465.752 138.532C464.856 136.492 463.895 134.302 462.927 132.098L462.841 131.904L463.024 131.799L463.151 131.726C465.092 130.607 467.022 129.495 468.937 128.391L468.82 128.614C468.655 126.519 468.491 124.441 468.33 122.377L468.479 122.578C466.562 121.836 464.66 121.101 462.777 120.374L462.592 120.302L462.633 120.108C463.161 117.605 463.684 115.131 464.201 112.686L464.241 112.494L464.437 112.504C466.459 112.613 468.454 112.72 470.431 112.827L470.229 112.927C471.344 111.243 472.444 109.582 473.531 107.941L473.513 108.158C472.538 106.045 471.581 103.97 470.638 101.925L470.561 101.761L470.707 101.655C472.591 100.28 474.437 98.9314 476.253 97.6063L476.377 97.515L476.503 97.6045C478.356 98.9242 480.178 100.221 481.964 101.493L481.75 101.478C483.516 100.579 485.232 99.707 486.914 98.85L486.805 99.0173C486.942 96.9916 487.075 95.041 487.204 93.1301L487.215 92.9656L487.379 92.9484C489.774 92.6972 492.074 92.4567 494.307 92.2235L494.455 92.2082L494.504 92.3482C495.308 94.7002 496.069 96.931 496.805 99.0823L496.669 98.9675C498.693 99.3264 500.562 99.659 502.367 99.9808L502.222 100.027C503.782 98.455 505.201 97.0232 506.56 95.6529L506.648 95.5634L506.753 95.633C508.863 97.0467 510.761 98.3176 512.542 99.5099L512.636 99.5723L512.594 99.6762C511.754 101.704 511.036 103.441 510.365 105.063L510.348 104.942C511.999 107.04 513.393 108.812 514.623 110.374L514.534 110.339C516.701 110.03 518.342 109.795 519.738 109.596L519.787 109.588L519.81 109.631C520.923 111.611 521.742 113.071 522.291 114.051C522.552 114.522 522.748 114.875 522.886 115.124C523.015 115.359 523.069 115.473 523.069 115.473C523.069 115.473 522.991 115.354 522.849 115.117C522.703 114.869 522.496 114.517 522.218 114.047C521.657 113.084 520.82 111.649 519.687 109.702L519.76 109.738C518.365 109.95 516.726 110.199 514.562 110.529L514.508 110.538L514.474 110.494C513.233 108.94 511.826 107.179 510.16 105.092L510.116 105.037L510.143 104.971C510.805 103.345 511.514 101.604 512.341 99.5723L512.391 99.7386C510.605 98.5536 508.702 97.2917 506.585 95.8889L506.777 95.869C505.423 97.2447 504.01 98.6819 502.456 100.26L502.397 100.322L502.311 100.306C500.504 99.9917 498.634 99.6663 496.609 99.3137L496.508 99.2957L496.474 99.1971C495.732 97.0467 494.963 94.8195 494.151 92.4703L494.347 92.595C492.114 92.8345 489.814 93.0813 487.419 93.338L487.593 93.1563C487.469 95.0672 487.341 97.0187 487.208 99.0444L487.201 99.1592L487.098 99.2125C485.416 100.072 483.703 100.948 481.939 101.85L481.826 101.907L481.725 101.834C479.935 100.566 478.112 99.2713 476.255 97.9552L476.505 97.9534C474.691 99.2821 472.846 100.633 470.965 102.011L471.036 101.74C471.981 103.784 472.942 105.857 473.919 107.97L473.972 108.083L473.902 108.188C472.818 109.832 471.72 111.493 470.607 113.18L470.536 113.288L470.405 113.281C468.431 113.177 466.434 113.071 464.413 112.964L464.649 112.782C464.134 115.227 463.613 117.701 463.085 120.204L462.942 119.939C464.828 120.667 466.728 121.4 468.646 122.14L468.784 122.193L468.795 122.341C468.958 124.403 469.121 126.482 469.286 128.577L469.298 128.725L469.169 128.799C467.254 129.904 465.326 131.016 463.384 132.134L463.258 132.207L463.356 131.909C464.323 134.112 465.285 136.302 466.181 138.343L465.931 138.206C468.032 137.879 470.119 137.553 472.05 137.252L472.177 137.233L472.263 137.331C473.657 138.947 475.04 140.551 476.315 142.03L476.404 142.133L476.358 142.261C475.626 144.278 474.902 146.278 474.235 148.115L474.152 147.848C476.087 149.221 478.001 150.58 479.756 151.825L479.459 151.856C480.973 150.214 482.47 148.588 483.835 147.107L483.928 147.007L484.058 147.043C486.16 147.615 488.238 148.181 490.126 148.695L490.244 148.727L490.279 148.844C490.932 151.027 491.576 153.18 492.161 155.134L491.942 154.982C494.288 154.825 496.596 154.671 498.687 154.532L498.498 154.707C498.802 152.739 499.103 150.803 499.374 149.059L499.389 148.963L499.473 148.915C501.492 147.753 503.469 146.617 505.259 145.587L505.374 145.521L505.477 145.605C507.129 146.931 508.745 148.23 510.204 149.402L509.977 149.398C512.075 147.834 514.106 146.317 515.967 144.929L515.92 145.157C514.862 143.3 513.836 141.499 512.904 139.862L512.857 139.781L512.903 139.699C513.942 137.838 514.944 136.045 515.862 134.402L515.909 134.317L516.006 134.325C518.141 134.487 520.18 134.643 522.072 134.787L521.928 134.89C522.607 132.395 523.24 130.07 523.807 127.988L523.865 128.126C521.956 127.079 520.202 126.118 518.667 125.277L518.621 125.252L518.615 125.2C518.355 122.735 518.132 120.616 517.951 118.906L517.946 118.862L517.981 118.838C519.635 117.738 520.895 116.899 521.757 116.326C522.178 116.049 522.5 115.837 522.73 115.686C522.95 115.543 523.069 115.473 523.069 115.473" fill="#DADBD8"/>
<path d="M597.253 304.255C597.253 304.386 468.997 304.491 310.821 304.491C152.59 304.491 24.3605 304.386 24.3605 304.255C24.3605 304.125 152.59 304.02 310.821 304.02C468.997 304.02 597.253 304.125 597.253 304.255Z" fill="#17282F"/>
<path d="M573.038 179.715L523.494 304.063H384.441L428.615 178.018C428.936 177.106 429.796 176.494 430.761 176.494L570.93 176.586C572.537 176.587 573.635 178.216 573.038 179.715Z" fill="#17282F"/>
<path d="M565.416 183.299L519.922 294.708C519.724 295.191 519.246 295.508 518.717 295.508H392.039C391.143 295.508 390.516 294.639 390.816 293.812L431.122 182.402C431.306 181.895 431.796 181.556 432.345 181.556H564.21C565.129 181.556 565.757 182.465 565.416 183.299" fill="#33535F"/>
<path d="M523.494 304.255H334.512V295.509H518.359L523.494 304.255Z" fill="#17282F"/>
<path d="M380.004 184.534C380.004 184.534 376.198 229.984 367.99 232.197C345.663 238.218 320.119 233.761 311.15 231.994C310.141 231.127 308.981 230.073 307.671 228.77C306.545 227.651 305.627 226.332 304.931 224.89C304.087 223.142 303.059 220.767 302.887 219.289C302.673 217.46 300.412 216.85 299.612 218.31C298.815 219.772 298.473 225.324 301.488 230.379C301.488 230.379 302.454 232.656 299.845 233.621C296.05 235.027 282.69 239.192 280.536 240.22C278.618 241.136 276.76 242.771 278.777 243.098C280.795 243.424 291.831 241.835 291.831 241.835C291.831 241.835 277.327 243.63 277.684 245.738C277.931 247.194 281.838 247.89 291.312 245.746C291.312 245.746 279.374 247.315 278.127 248.57C275.308 251.408 289.69 249.662 289.69 249.662C279.625 250.974 279.729 250.446 279.622 251.831C279.542 252.869 281.818 253.287 287.346 253.354C291.83 253.41 296.464 254.365 303.288 254.822C303.288 254.822 389.581 279.333 401.452 241.204C407.853 220.651 407.892 212.829 410.105 199.358L380.004 184.534" fill="#F8A58D"/>
<path d="M295.768 249.013C295.807 249.266 292.735 249.797 288.907 250.198C285.079 250.599 281.965 250.717 281.951 250.462C281.937 250.207 285.008 249.675 288.812 249.277C292.615 248.877 295.73 248.76 295.768 249.013Z" fill="#AC584F"/>
<path d="M295.673 245.078C295.715 245.331 292.474 246.082 288.434 246.755C284.395 247.428 281.087 247.77 281.044 247.517C281.003 247.265 284.243 246.514 288.284 245.84C292.322 245.168 295.631 244.826 295.673 245.078Z" fill="#AC584F"/>
<path d="M295.553 240.995C295.598 241.247 292.542 242.01 288.73 242.697C284.916 243.385 281.789 243.738 281.743 243.486C281.699 243.235 284.753 242.473 288.566 241.784C292.38 241.097 295.507 240.744 295.553 240.995" fill="#AC584F"/>
<path d="M492 262.113L497.61 294.913H410.104L413.455 269.426L492 262.113" fill="#17282F"/>
<path d="M388.864 149.444C388.864 149.444 376.144 187.798 376.958 189.331L404.954 195.849L388.864 149.444" fill="#FFCD00"/>
<path d="M412.852 221.487L410.105 276.385L494.64 266.777L481.41 213.715C481.41 213.715 472.314 152.2 455.742 145.384C449.339 142.749 443.223 141.135 438.154 139.691C427.594 136.683 416.54 135.861 405.654 137.276L403.953 137.497C396.896 138.415 390.994 143.047 388.864 149.445C388.864 149.445 388.567 168.34 394.351 180.848L412.852 221.487" fill="#F5E088"/>
<path d="M432.868 293.875C432.738 293.877 432.55 289.414 432.448 283.907C432.346 278.397 432.368 273.931 432.498 273.928C432.627 273.926 432.815 278.389 432.917 283.897C433.019 289.405 432.996 293.873 432.868 293.875" fill="#33535F"/>
<path d="M437.52 276.444C437.504 276.424 437.612 276.298 437.886 276.205C438.154 276.11 438.606 276.088 439.082 276.321C439.55 276.528 440.056 277.116 440.008 277.865C439.979 278.577 439.514 279.361 438.695 279.635C437.874 279.889 437.051 279.551 436.578 279.041C436.075 278.518 435.978 277.82 436.06 277.32C436.247 276.271 436.893 275.921 436.898 275.972C436.966 276.019 436.463 276.444 436.39 277.356C436.36 277.796 436.478 278.344 436.888 278.738C437.279 279.135 437.949 279.379 438.551 279.187C439.147 278.994 439.539 278.383 439.577 277.839C439.633 277.279 439.297 276.831 438.924 276.614C438.135 276.149 437.531 276.52 437.52 276.444" fill="#33535F"/>
<path d="M493.392 281.811C493.4 281.824 493.285 281.916 493.058 282.079C492.825 282.234 492.499 282.492 492.038 282.755C491.135 283.317 489.758 284.029 487.961 284.663C486.167 285.302 483.931 285.809 481.407 285.933C478.89 286.064 476.086 285.768 473.302 284.883C470.527 283.967 468.078 282.565 466.111 280.982C464.135 279.401 462.615 277.677 461.53 276.106C460.441 274.537 459.737 273.153 459.333 272.168C459.109 271.683 458.996 271.282 458.898 271.021C458.808 270.755 458.768 270.613 458.783 270.608C458.821 270.593 459.043 271.138 459.498 272.092C459.95 273.045 460.691 274.389 461.799 275.912C462.902 277.437 464.424 279.107 466.378 280.641C468.326 282.177 470.73 283.539 473.446 284.434C476.171 285.3 478.915 285.604 481.389 285.501C483.868 285.401 486.074 284.938 487.856 284.348C489.642 283.762 491.025 283.105 491.947 282.596C492.871 282.089 493.368 281.777 493.392 281.811" fill="#33535F"/>
<path d="M425.14 173.842C425.16 173.867 424.806 174.22 424.133 174.828C423.454 175.427 422.466 176.299 421.111 177.209C419.765 178.102 417.989 179.064 415.799 179.309C413.606 179.571 411.216 178.92 408.955 177.927C406.679 176.927 404.637 175.761 402.647 175.041C400.668 174.291 398.753 174.034 397.177 174.263C395.594 174.456 394.415 175.068 393.711 175.603C393.003 176.146 392.709 176.562 392.672 176.532C392.659 176.522 392.727 176.416 392.869 176.221C393.011 176.028 393.248 175.759 393.597 175.46C394.287 174.863 395.494 174.177 397.13 173.934C398.755 173.652 400.767 173.888 402.793 174.633C404.836 175.347 406.901 176.513 409.14 177.494C411.371 178.472 413.668 179.104 415.756 178.878C417.843 178.668 419.584 177.774 420.932 176.929C422.288 176.071 423.303 175.242 424.015 174.688C424.723 174.125 425.118 173.817 425.14 173.842" fill="#FAFAF9"/>
<path d="M402.962 152.375C402.996 152.409 402.445 153.041 401.342 153.812C400.246 154.585 398.557 155.437 396.544 155.882C394.531 156.32 392.64 156.253 391.323 156.01C390 155.771 389.238 155.427 389.255 155.381C389.277 155.304 390.068 155.531 391.37 155.681C392.669 155.835 394.494 155.846 396.444 155.423C398.393 154.991 400.047 154.217 401.163 153.533C402.284 152.851 402.909 152.314 402.962 152.375" fill="#FAFAF9"/>
<path d="M479.395 204.084C479.404 204.096 479.206 204.272 478.809 204.588C478.393 204.875 477.769 205.298 476.874 205.668C475.099 206.424 472.251 206.875 468.833 206.406C467.125 206.182 465.295 205.741 463.344 205.26C461.393 204.784 459.308 204.258 457.078 204.042C454.851 203.85 452.485 203.994 450.104 204.545C447.721 205.08 445.333 205.96 442.927 206.949C438.129 208.952 433.591 211.129 429.112 212.064C424.64 213.098 420.441 212.541 417.127 211.757C413.787 210.948 411.195 209.942 409.407 209.264C408.549 208.921 407.867 208.648 407.36 208.446C406.896 208.251 406.654 208.142 406.661 208.127C406.665 208.111 406.919 208.191 407.395 208.357C407.908 208.539 408.6 208.785 409.47 209.093C411.275 209.716 413.879 210.672 417.202 211.431C420.505 212.17 424.629 212.68 429.021 211.639C433.427 210.698 437.929 208.528 442.75 206.514C445.166 205.519 447.58 204.633 450.004 204.095C452.423 203.54 454.848 203.402 457.12 203.61C459.394 203.843 461.49 204.388 463.438 204.881C465.384 205.379 467.198 205.834 468.879 206.077C472.245 206.58 475.043 206.189 476.808 205.497C478.582 204.8 479.361 204.03 479.395 204.084" fill="#FAFAF9"/>
<path d="M412.396 237.696C412.389 237.691 412.429 237.631 412.514 237.52C412.618 237.387 412.744 237.227 412.899 237.031C413.271 236.631 413.828 236.032 414.698 235.451C415.557 234.86 416.705 234.267 418.127 233.841C419.549 233.436 421.236 233.167 423.1 233.228C426.866 233.288 431.111 234.852 435.559 236.84C437.799 237.816 440.136 238.867 442.658 239.662C445.171 240.443 447.893 241 450.67 240.782C453.45 240.574 456.023 239.515 458.33 238.239C460.654 236.973 462.783 235.526 464.937 234.342C467.077 233.138 469.265 232.216 471.432 231.797C473.598 231.396 475.677 231.488 477.507 231.829C481.188 232.559 483.816 234.267 485.359 235.635C486.916 237.023 487.525 238.018 487.525 238.018C487.517 238.023 487.465 237.974 487.37 237.871C487.257 237.747 487.121 237.596 486.955 237.412C486.782 237.202 486.541 236.967 486.257 236.692C485.982 236.403 485.636 236.104 485.241 235.775C483.68 234.465 481.064 232.83 477.446 232.156C475.647 231.842 473.613 231.772 471.504 232.18C469.399 232.604 467.26 233.519 465.147 234.722C463.02 235.903 460.898 237.357 458.549 238.644C456.222 239.938 453.579 241.036 450.706 241.253C447.843 241.475 445.065 240.899 442.521 240.101C439.968 239.29 437.618 238.222 435.386 237.236C430.951 235.228 426.776 233.662 423.089 233.56C421.259 233.48 419.602 233.72 418.199 234.095C416.797 234.489 415.66 235.045 414.8 235.603C413.071 236.731 412.449 237.753 412.396 237.696" fill="#FAFAF9"/>
<path d="M488.747 266.655C488.676 266.688 488.405 265.482 487.154 263.736C485.909 262.021 483.488 259.849 479.825 258.695C478.014 258.097 475.926 257.783 473.685 257.873C471.443 257.946 469.068 258.401 466.651 259.142C464.234 259.89 461.775 260.922 459.272 262.092C456.769 263.263 454.211 264.565 451.514 265.75C448.819 266.935 446.096 267.933 443.362 268.508C440.623 269.051 437.917 269.208 435.363 269.034C430.239 268.702 425.803 267.277 422.194 265.956C418.588 264.585 415.763 263.258 413.817 262.338C412.845 261.874 412.095 261.505 411.589 261.249C411.357 261.129 411.169 261.032 411.015 260.953C410.888 260.884 410.823 260.845 410.827 260.838C410.83 260.83 410.902 260.854 411.036 260.91C411.196 260.977 411.39 261.061 411.629 261.163C412.182 261.409 412.937 261.746 413.893 262.17C415.861 263.04 418.703 264.318 422.308 265.643C425.916 266.919 430.331 268.298 435.39 268.6C437.911 268.761 440.576 268.597 443.268 268.057C445.957 267.485 448.646 266.496 451.326 265.319C454.006 264.141 456.563 262.843 459.079 261.674C461.594 260.505 464.077 259.473 466.526 258.727C468.973 257.989 471.39 257.54 473.672 257.483C475.953 257.408 478.093 257.75 479.928 258.38C483.646 259.595 486.083 261.853 487.302 263.628C487.912 264.53 488.276 265.295 488.48 265.828C488.564 266.076 488.634 266.277 488.691 266.441C488.736 266.581 488.755 266.652 488.747 266.655" fill="#FAFAF9"/>
<path d="M421.863 275.127C421.802 275.107 421.741 275.087 421.681 275.067L422.56 274.969L421.863 275.127Z" fill="#111D23"/>
<path d="M421.68 275.067C421.353 274.96 421.025 274.853 420.697 274.746C423.682 272.613 426.668 270.414 429.563 268.189C431.381 268.594 433.318 268.9 435.363 269.033C436.021 269.078 436.689 269.101 437.365 269.101C439.313 269.101 441.329 268.91 443.362 268.507C443.886 268.397 444.41 268.271 444.932 268.132C438.884 272.162 431.595 274.275 424.316 274.566L422.56 274.968L421.68 275.067V275.067ZM437.249 268.659C436.623 268.659 436.002 268.639 435.39 268.599C433.493 268.486 431.687 268.221 429.98 267.868C441.568 258.921 451.551 249.627 453.451 243.016C453.683 242.212 453.907 241.403 454.126 240.586C455.698 240.101 457.179 239.407 458.549 238.644C459.845 237.934 461.07 237.173 462.267 236.436C460.968 247.549 456.534 258.599 448.048 265.788C447.424 266.317 446.782 266.821 446.123 267.302C445.172 267.599 444.219 267.853 443.268 268.056C441.228 268.465 439.206 268.659 437.249 268.659V268.659ZM454.268 240.049C457.352 228.355 459.18 215.552 460.264 204.87C461.949 214.675 463.294 224.576 462.465 234.462C462.425 234.932 462.38 235.402 462.33 235.873C461.035 236.663 459.718 237.483 458.331 238.239C457.054 238.945 455.697 239.584 454.268 240.049" fill="#FFCD00"/>
<path d="M454.126 240.587C454.174 240.409 454.222 240.229 454.268 240.05C455.697 239.584 457.054 238.945 458.331 238.239C459.718 237.484 461.036 236.664 462.33 235.874C462.311 236.061 462.289 236.249 462.267 236.437C461.071 237.174 459.845 237.935 458.55 238.644C457.179 239.407 455.698 240.101 454.126 240.587" fill="#BFC0BE"/>
<path d="M437.365 269.102C436.689 269.102 436.022 269.079 435.363 269.034C433.318 268.901 431.381 268.594 429.563 268.19C429.702 268.082 429.842 267.975 429.98 267.869C431.687 268.222 433.493 268.487 435.39 268.6C436.002 268.639 436.623 268.659 437.25 268.659C439.206 268.659 441.228 268.466 443.268 268.056C444.219 267.854 445.172 267.599 446.123 267.303C445.732 267.588 445.336 267.864 444.932 268.132C444.41 268.271 443.886 268.397 443.362 268.508C441.329 268.91 439.313 269.102 437.365 269.102" fill="#BFC0BE"/>
<path d="M362.317 275.018C363.511 275.759 365.883 276.374 367.684 276.763C369.169 277.083 370.698 277.16 372.205 276.963C372.907 276.871 373.571 276.774 374.194 276.674C377.1 276.206 379.8 274.926 382.024 272.989C391.774 264.49 418.167 237.604 422.883 231.521C428.553 224.206 430.142 175.867 430.142 175.867L461.809 181.073C461.809 181.073 461.244 215.913 453.452 243.017C448.496 260.254 388.606 295.719 388.554 295.751C384.118 300.636 379.126 305.92 376.061 308.5C369.678 313.871 369.19 313.304 368.694 312.451C367.361 310.16 379.566 302.574 376.001 302.678C372.436 302.781 362.148 313.697 360.853 311.245C359.165 308.049 372.087 300.344 373.132 299.61C374.148 298.898 373.159 297.336 372.251 298.048C370.943 299.071 356.958 309.494 355.27 306.371C354.335 304.64 357.588 303.241 357.588 303.241C357.588 303.241 371.387 294.459 370.541 293.011C369.683 291.541 361.408 296.425 358.733 298.27C356.09 300.092 354.152 299.57 354.32 297.725C354.435 296.468 362.494 290.623 365.179 288.861C367.867 287.099 375.324 282.398 369.77 281.713C364.216 281.029 360.204 278.401 359.612 276.933C359.019 275.464 360.839 274.1 362.317 275.018" fill="#F8A58D"/>
<path d="M442.094 144.37C448.214 143.077 454.581 145.168 458.737 149.515C462.428 153.375 466.138 159.831 465.823 170.074C465.209 190.058 463.637 196.875 463.637 196.875L424.606 195.517L426.136 161.942C426.136 161.942 429.152 147.103 442.094 144.37Z" fill="#F03D5F"/>
<path d="M463.637 196.875L460.984 196.783L463.637 196.875C463.637 196.875 465.209 190.058 465.823 170.074C465.876 168.322 465.812 166.679 465.651 165.143C465.854 166.84 465.939 168.653 465.88 170.583C465.266 190.566 463.637 196.875 463.637 196.875" fill="#DA314B"/>
<path d="M463.637 196.875L460.984 196.783L429.055 195.672L424.606 195.517L426.193 162.451C426.193 162.451 429.152 147.103 442.094 144.37C443.303 144.115 444.523 143.991 445.731 143.991C450.643 143.991 455.402 146.027 458.737 149.515C461.733 152.648 464.778 157.825 465.651 165.143C465.813 166.679 465.877 168.322 465.823 170.074C465.209 190.058 463.637 196.875 463.637 196.875" fill="#FFCD00"/>
<path d="M465.112 185.227C465.075 185.266 464.669 184.824 463.797 184.208C462.927 183.593 461.543 182.863 459.702 182.378C457.864 181.917 455.559 181.704 453.089 182.148C450.625 182.616 448.042 183.728 445.369 184.909C442.689 186.096 440.115 187.255 437.603 187.847C435.096 188.426 432.746 188.45 430.825 188.174C428.902 187.878 427.416 187.284 426.486 186.724C426.023 186.438 425.675 186.203 425.461 186.012C425.241 185.831 425.13 185.731 425.141 185.718C425.173 185.675 425.63 186.066 426.574 186.564C427.514 187.063 428.983 187.595 430.87 187.845C432.756 188.072 435.057 188.015 437.503 187.425C439.946 186.827 442.5 185.666 445.179 184.478C447.863 183.295 450.464 182.182 453.014 181.72C455.562 181.288 457.917 181.543 459.787 182.056C461.66 182.594 463.052 183.388 463.904 184.059C464.325 184.403 464.642 184.679 464.83 184.896C465.027 185.102 465.124 185.215 465.112 185.227" fill="#FAFAF9"/>
<path d="M463.519 156.939C463.532 156.97 463.075 157.164 462.236 157.492C461.82 157.667 461.298 157.839 460.685 158.023C460.077 158.219 459.379 158.429 458.593 158.605C457.037 159.02 455.14 159.324 453.028 159.589C450.91 159.799 448.568 159.919 446.112 159.843C443.655 159.744 441.325 159.47 439.228 159.088C437.143 158.652 435.278 158.181 433.771 157.602C433.006 157.347 432.335 157.059 431.756 156.789C431.167 156.535 430.67 156.3 430.282 156.067C429.495 155.628 429.068 155.374 429.085 155.346C429.1 155.317 429.556 155.518 430.364 155.903C430.76 156.109 431.266 156.318 431.857 156.547C432.443 156.792 433.114 157.055 433.88 157.287C435.383 157.821 437.239 158.253 439.306 158.661C441.386 159.016 443.693 159.274 446.127 159.373C448.563 159.448 450.882 159.343 452.984 159.158C455.078 158.918 456.965 158.65 458.519 158.28C459.303 158.127 460.002 157.941 460.612 157.77C461.228 157.613 461.755 157.466 462.178 157.319C463.03 157.046 463.508 156.909 463.519 156.939" fill="#FAFAF9"/>
<path d="M421.498 100.882C421.354 101.912 421.872 103.005 422.759 103.542C423.647 104.079 424.851 104.03 425.691 103.422C427.289 102.266 427.133 99.8291 426.492 97.9608C425.851 96.0924 424.879 94.1436 425.404 92.239C425.806 90.781 427.001 89.7108 427.873 88.4761C429.389 86.3275 429.928 83.4567 429.088 80.9619C428.247 78.4662 425.972 76.4623 423.366 76.154C420.706 75.8404 417.689 77.1203 415.502 75.5665C413.917 74.4411 413.489 72.2546 412.175 70.8201C410.135 68.5929 406.582 68.7474 403.696 69.617C400.808 70.4866 397.953 71.9093 394.951 71.6427C392.443 71.4185 390.198 70.0391 387.775 69.3567C382.522 67.877 376.446 70.0816 373.35 74.5921C370.253 79.1026 370.363 85.5872 373.611 89.9892C374.777 91.5711 376.372 92.9233 378.281 93.3698" fill="#17282F"/>
<path d="M417.087 157.596C408.967 159.087 401.176 153.702 399.66 145.556C398.792 140.894 398.072 136.968 398.072 136.968C398.072 136.968 386.014 137.144 383.867 125.379C381.721 113.612 379.309 87.7536 379.309 87.7536L379.159 86.1898C391.759 77.9977 407.998 78.5852 421.262 85.6393L421.658 88.0717L429.278 141.114C430.16 148.971 424.833 156.172 417.087 157.596" fill="#F8A58D"/>
<path d="M403.928 116.427L396.388 120.099C396.388 120.099 398.791 122.806 401.967 120.982C405.262 119.089 403.928 116.427 403.928 116.427Z" fill="white"/>
<path d="M398.025 136.801C398.025 136.801 405.549 136.137 412.592 129.813C412.592 129.813 410.414 138.918 398.516 139.86L398.025 136.801" fill="#F68260"/>
<path d="M422.258 96.0108C422.503 95.8861 430.899 93.8541 431.177 104.036C431.456 114.217 421.121 111.132 421.096 110.84C421.069 110.549 422.258 96.0108 422.258 96.0108" fill="#F8A58D"/>
<path d="M424.105 107.183C424.148 107.15 424.285 107.302 424.588 107.432C424.882 107.557 425.385 107.636 425.908 107.423C426.969 106.999 427.824 105.266 427.824 103.43C427.824 102.502 427.607 101.625 427.26 100.904C426.929 100.167 426.435 99.6598 425.894 99.5785C425.354 99.4691 424.98 99.8036 424.864 100.094C424.737 100.381 424.806 100.584 424.752 100.603C424.725 100.629 424.531 100.437 424.6 100.015C424.637 99.8117 424.75 99.5685 424.982 99.3661C425.221 99.16 425.575 99.0497 425.953 99.0804C426.736 99.1129 427.46 99.8153 427.842 100.607C428.267 101.402 428.532 102.388 428.531 103.429C428.522 105.482 427.528 107.431 426.074 107.896C425.366 108.102 424.765 107.903 424.451 107.671C424.13 107.429 424.07 107.202 424.105 107.183" fill="#F68260"/>
<path d="M377.279 93.0414C377.279 93.0414 384.869 95.5226 393.501 89.6066C399.165 85.7243 406.049 83.2621 407.78 84.2745C409.509 85.2868 410.696 91.5301 416.97 92.5388C416.97 92.5388 418.192 104.595 422.9 103.512C427.606 102.429 422.094 84.2537 422.094 84.2537L410.11 77.8621L397.058 77.1978L383.238 80.6941L375.921 86.6445L377.279 93.0414" fill="#17282F"/>
<path d="M421.576 74.0933C421.58 74.2334 420.326 74.2678 419.039 75.0117C417.735 75.7312 417.055 76.7897 416.938 76.7128C416.82 76.6785 417.377 75.3995 418.808 74.6013C420.23 73.7878 421.607 73.974 421.576 74.0933Z" fill="#17282F"/>
<path d="M416.028 70.0508C416.118 70.0165 416.8 71.6209 416.84 73.7722C416.858 74.8433 416.635 75.8069 416.39 76.4577C416.137 77.1103 415.887 77.4646 415.836 77.4402C415.703 77.3842 416.416 75.8295 416.371 73.7749C416.338 71.7348 415.871 70.087 416.028 70.0508Z" fill="#17282F"/>
<path d="M382.915 104.895C382.929 105.809 383.711 106.552 384.663 106.556C385.614 106.558 386.374 105.822 386.36 104.907C386.347 103.993 385.564 103.249 384.614 103.246C383.664 103.243 382.902 103.98 382.915 104.895Z" fill="#17282F"/>
<path d="M382.866 103.563C383.09 103.779 384.346 102.744 386.2 102.655C388.049 102.54 389.457 103.429 389.647 103.19C389.741 103.084 389.503 102.688 388.889 102.285C388.284 101.884 387.269 101.515 386.115 101.578C384.961 101.643 384.011 102.118 383.476 102.583C382.928 103.051 382.755 103.469 382.866 103.563" fill="#17282F"/>
<path d="M401.149 103.936C401.206 104.848 402.023 105.554 402.973 105.512C403.922 105.47 404.647 104.698 404.591 103.785C404.535 102.873 403.719 102.167 402.769 102.208C401.819 102.25 401.094 103.023 401.149 103.936" fill="#17282F"/>
<path d="M400.641 102.587C400.876 102.791 402.084 101.698 403.929 101.522C405.771 101.32 407.22 102.142 407.398 101.895C407.486 101.785 407.232 101.4 406.598 101.027C405.976 100.654 404.945 100.334 403.795 100.45C402.646 100.57 401.719 101.089 401.205 101.578C400.681 102.072 400.527 102.497 400.641 102.587" fill="#17282F"/>
<path d="M395.274 116.99C395.272 116.884 394.105 116.798 392.222 116.741C391.746 116.738 391.291 116.687 391.18 116.372C391.036 116.041 391.184 115.511 391.358 114.938C391.691 113.75 392.038 112.503 392.404 111.197C393.841 105.876 394.834 101.519 394.619 101.463C394.405 101.407 393.066 105.674 391.627 110.996C391.284 112.307 390.956 113.556 390.643 114.752C390.518 115.308 390.27 115.948 390.579 116.634C390.741 116.975 391.112 117.198 391.422 117.251C391.733 117.313 391.999 117.292 392.233 117.284C394.115 117.202 395.277 117.097 395.274 116.99Z" fill="#17282F"/>
<path d="M399.496 97.0529C399.726 97.5392 401.547 97.1198 403.738 97.1704C405.931 97.1767 407.74 97.6422 407.983 97.1614C408.09 96.9336 407.74 96.4889 406.987 96.0695C406.239 95.651 405.077 95.2966 403.762 95.2786C402.449 95.2632 401.277 95.5877 400.519 95.9872C399.756 96.3867 399.394 96.8215 399.496 97.0529" fill="#17282F"/>
<path d="M382.615 98.5864C382.981 98.975 384.21 98.4137 385.738 98.2438C387.26 98.0196 388.59 98.2501 388.845 97.781C388.955 97.5541 388.711 97.1528 388.106 96.8093C387.51 96.4667 386.546 96.2335 385.498 96.3682C384.45 96.5038 383.576 96.9747 383.086 97.4583C382.587 97.9437 382.452 98.3947 382.615 98.5864Z" fill="#17282F"/>
<path d="M56.0365 183.15L104.289 304.255H239.715L196.692 181.498C196.381 180.609 195.542 180.013 194.602 180.014L58.0908 180.102C56.525 180.104 55.4551 181.691 56.0365 183.15" fill="#17282F"/>
<path d="M63.4608 186.454L107.768 294.957C107.96 295.427 108.425 295.735 108.942 295.735H232.315C233.188 295.735 233.798 294.89 233.506 294.084L194.251 185.581C194.072 185.086 193.595 184.756 193.06 184.756H64.6344C63.74 184.756 63.1291 185.64 63.4608 186.454Z" fill="#33535F"/>
<path d="M104.289 304.255H288.342V295.737H109.289L104.289 304.255Z" fill="#17282F"/>
<path d="M315.952 186.298C315.952 186.298 319.327 181.902 317.047 176.823C314.768 171.744 308.643 165.95 308.643 165.95C306.862 165.489 309.22 155.274 310.254 151.891C311.277 148.55 310.122 146.662 308.284 147.398C307.03 147.9 303.619 158.176 302.673 161.546C302.155 163.387 301.193 167 300.023 168.973C299.052 170.61 297.937 171.12 296.813 168.555C294.333 162.898 290.355 159.459 288.659 159.277C286.963 159.096 286.148 161.43 287.562 162.713C288.704 163.75 290.094 166.067 291.069 167.853C291.873 169.322 292.441 170.913 292.721 172.563C292.964 173.993 293.136 175.264 293.269 176.408C293.269 176.408 293.834 181.432 293.201 184.952L259.276 225.177L251.873 197.945L251.186 195.849L221.977 206.744C221.105 206.977 228.256 228.303 232.793 241.556C235.038 248.113 239.985 253.376 246.377 256.002C256.599 260.204 268.359 256.847 274.849 247.873L311.162 194.951L310.379 194.415L311.113 194.751L315.952 186.298" fill="#C0776A"/>
<path d="M311.422 168.614C311.452 168.625 311.347 168.98 311.131 169.609C310.872 170.329 310.552 171.213 310.176 172.258C309.744 173.404 309.247 174.72 308.703 176.165C308.401 176.88 308.205 177.713 307.596 178.44C307.283 178.791 306.859 179.074 306.348 179.15C305.833 179.238 305.273 178.99 304.951 178.591C304.616 178.202 304.451 177.695 304.43 177.219C304.402 176.74 304.486 176.285 304.583 175.861C304.786 175.02 305.001 174.225 305.221 173.466C305.661 171.952 306.124 170.608 306.545 169.493C306.967 168.378 307.347 167.492 307.625 166.887C307.904 166.281 308.082 165.958 308.11 165.97C308.141 165.984 308.02 166.332 307.795 166.957C307.569 167.581 307.237 168.482 306.856 169.605C306.478 170.729 306.051 172.074 305.636 173.585C305.43 174.339 305.223 175.139 305.031 175.963C304.842 176.764 304.769 177.666 305.307 178.285C305.56 178.586 305.92 178.742 306.286 178.686C306.65 178.636 307.001 178.416 307.252 178.134C307.765 177.547 307.993 176.725 308.301 176.006C308.88 174.576 309.407 173.272 309.867 172.136C310.299 171.114 310.664 170.247 310.962 169.542C311.23 168.933 311.392 168.602 311.422 168.614" fill="#B85549"/>
<path d="M314.864 172.588C314.895 172.6 314.802 172.911 314.611 173.462C314.418 174.014 314.126 174.806 313.756 175.78C313.382 176.756 312.946 177.909 312.424 179.198C312.15 179.831 311.78 180.554 311.073 181.006C310.73 181.226 310.312 181.379 309.864 181.364C309.415 181.35 308.977 181.137 308.665 180.821C308.018 180.187 307.86 179.261 307.93 178.492C307.997 177.706 308.194 177.006 308.367 176.332C308.731 174.991 309.172 173.819 309.577 172.854C309.985 171.889 310.359 171.129 310.63 170.612C310.903 170.095 311.075 169.821 311.104 169.835C311.17 169.867 310.62 171.035 309.885 172.977C309.523 173.95 309.12 175.118 308.784 176.443C308.626 177.106 308.441 177.812 308.388 178.524C308.332 179.23 308.482 179.983 308.994 180.486C309.487 181.012 310.26 180.998 310.827 180.618C311.407 180.258 311.755 179.632 312.029 179.023C312.551 177.785 313.028 176.651 313.448 175.654C313.858 174.696 314.197 173.923 314.441 173.394C314.685 172.863 314.835 172.577 314.864 172.588Z" fill="#B85549"/>
<path d="M316.755 176.605C316.816 176.626 316.552 177.608 316.073 179.18C315.829 179.968 315.552 180.891 315.198 181.937C315.011 182.453 314.685 183.064 314.049 183.357C313.742 183.506 313.341 183.538 313 183.402C312.658 183.27 312.384 183.018 312.192 182.721C311.805 182.101 311.806 181.407 311.83 180.814C311.857 180.211 311.935 179.633 312.047 179.091C312.272 178.007 312.632 177.072 313.008 176.329C313.386 175.587 313.772 175.032 314.061 174.671C314.349 174.309 314.541 174.138 314.563 174.155C314.628 174.204 313.972 174.993 313.307 176.472C312.98 177.211 312.664 178.127 312.471 179.175C312.374 179.698 312.309 180.254 312.289 180.833C312.267 181.404 312.293 182.007 312.586 182.465C312.877 182.934 313.414 183.162 313.86 182.936C314.324 182.732 314.609 182.264 314.795 181.781C315.144 180.799 315.468 179.891 315.759 179.074C316.318 177.53 316.695 176.584 316.755 176.605" fill="#B85549"/>
<path d="M305.173 185.328C305.093 185.317 305.177 184.612 305.087 183.489C305.002 182.37 304.674 180.834 303.91 179.302C303.138 177.774 302.102 176.595 301.256 175.862C300.41 175.122 299.796 174.77 299.835 174.7C299.855 174.656 300.534 174.906 301.465 175.605C302.394 176.294 303.524 177.494 304.329 179.09C305.128 180.689 305.417 182.314 305.418 183.474C305.424 184.64 305.22 185.337 305.173 185.328" fill="#B85549"/>
<path d="M116.071 294.923L204.112 295.37L205.192 279.785L136.515 249.099C130.482 256.334 126.841 264.804 125.107 274.263L116.071 294.923Z" fill="#17282F"/>
<path d="M157.669 264.913C157.692 264.935 157.409 265.254 156.873 265.815C156.609 266.101 156.276 266.439 155.854 266.792C155.435 267.151 154.98 267.586 154.411 267.986C153.86 268.407 153.248 268.861 152.548 269.281C151.871 269.741 151.093 270.138 150.284 270.574C148.637 271.385 146.753 272.132 144.702 272.674C142.644 273.191 140.632 273.446 138.8 273.531C137.882 273.539 137.009 273.568 136.196 273.492C135.38 273.461 134.627 273.359 133.941 273.257C133.252 273.181 132.643 273.019 132.105 272.907C131.565 272.801 131.111 272.667 130.743 272.544C130.005 272.311 129.603 272.168 129.614 272.138C129.64 272.04 131.266 272.59 133.985 272.928C134.666 273.006 135.41 273.089 136.216 273.102C137.018 273.16 137.878 273.118 138.781 273.097C140.585 272.99 142.56 272.726 144.585 272.217C146.603 271.685 148.46 270.962 150.093 270.184C150.894 269.766 151.668 269.389 152.344 268.949C153.043 268.549 153.657 268.117 154.215 267.719C156.437 266.108 157.599 264.841 157.669 264.913" fill="#33535F"/>
<path d="M181.606 293.613C181.545 293.586 181.981 292.451 182.673 290.612C183.416 288.654 184.358 286.175 185.4 283.434C186.461 280.698 187.42 278.225 188.178 276.271C188.907 274.445 189.383 273.325 189.443 273.347C189.505 273.371 189.137 274.532 188.489 276.389C187.839 278.245 186.909 280.798 185.837 283.602C184.766 286.405 183.755 288.928 182.98 290.738C182.595 291.642 182.266 292.367 182.025 292.863C181.783 293.359 181.635 293.627 181.606 293.613" fill="#33535F"/>
<path d="M182.1 272.62C182.144 272.691 181.379 272.815 180.93 273.748C180.717 274.194 180.653 274.833 181.009 275.371C181.338 275.904 182.045 276.321 182.755 276.214C183.464 276.1 184.011 275.486 184.164 274.877C184.339 274.256 184.085 273.668 183.748 273.307C183.036 272.555 182.27 272.671 182.29 272.59C182.285 272.563 182.453 272.496 182.771 272.516C183.083 272.534 183.555 272.674 183.984 273.073C184.407 273.45 184.779 274.184 184.584 274.981C184.412 275.745 183.769 276.518 182.827 276.68C181.88 276.813 181.034 276.273 180.64 275.597C180.212 274.898 180.344 274.085 180.634 273.596C180.921 273.086 181.328 272.809 181.62 272.695C181.917 272.58 182.096 272.593 182.1 272.62" fill="#33535F"/>
<path d="M241.645 162.984C241.645 162.984 254.518 201.005 253.793 202.557L227.728 209.729L241.645 162.984" fill="#F03D5F"/>
<path d="M229.908 209.129C232.679 203.949 235.444 198.533 237.228 194.417C240.817 186.139 241.907 175.063 242.235 168.524C242.33 166.64 242.114 164.791 241.627 163.042L241.645 162.984C241.645 162.984 253.824 198.954 253.823 202.349C253.823 202.445 253.813 202.514 253.793 202.557L229.908 209.129" fill="#FFCD00"/>
<path d="M220.519 225.983L212.305 260.988L206.968 280.577L136.515 249.099L158.872 212.99C158.872 212.99 171.122 162.711 188.401 153.414C200.957 146.658 211.627 149.007 213.225 149.007L228.23 151.088C228.561 151.133 228.889 151.189 229.214 151.254C237.213 152.833 242.644 160.35 242.235 168.524C241.908 175.063 240.817 186.139 237.228 194.417C232.425 205.496 220.519 225.983 220.519 225.983" fill="#F5E088"/>
<path d="M209.595 272.721C209.595 272.721 209.418 272.65 209.08 272.488C208.736 272.34 208.248 272.074 207.623 271.696C206.388 270.934 204.638 269.599 202.96 267.37C201.303 265.163 199.729 261.955 199.502 257.967C199.384 255.988 199.716 253.815 200.694 251.772C201.188 250.756 201.857 249.776 202.75 248.969C203.631 248.15 204.78 247.574 206.027 247.346C208.564 246.879 211.292 248.198 212.951 250.383C213.773 251.488 214.363 252.837 214.463 254.285C214.592 255.719 214.3 257.209 213.686 258.557C212.475 261.264 209.967 263.507 206.899 264.302C203.85 265.131 200.457 264.728 197.446 263.371C194.421 261.998 191.8 259.714 189.635 257.04C188.549 255.699 187.544 254.274 186.66 252.745C185.781 251.219 185.041 249.57 184.624 247.804C184.191 246.046 184.146 244.156 184.565 242.35C184.992 240.556 185.905 238.805 187.38 237.59C188.847 236.372 190.819 235.8 192.734 236.013C193.689 236.134 194.636 236.46 195.435 237.033C196.226 237.611 196.868 238.401 197.263 239.299C198.062 241.106 198.022 243.179 197.366 244.981C196.692 246.796 195.395 248.278 193.916 249.409C190.909 251.652 187.307 252.787 183.756 253.201C180.189 253.598 176.583 253.095 173.393 251.751C170.202 250.389 167.514 248.113 165.62 245.4C163.711 242.692 162.638 239.492 162.566 236.34C162.537 234.767 162.763 233.2 163.303 231.762C163.842 230.326 164.709 229.018 165.885 228.085C167.064 227.163 168.504 226.638 169.944 226.577C171.381 226.51 172.844 226.975 173.873 227.94C174.906 228.902 175.467 230.242 175.607 231.559C175.757 232.882 175.536 234.201 175.049 235.367C174.046 237.748 171.907 239.219 169.852 240.052C167.757 240.889 165.623 241.161 163.658 241.199C159.699 241.25 156.355 240.295 153.826 239.186C151.286 238.056 149.528 236.773 148.409 235.841C147.848 235.375 147.441 234.997 147.18 234.728C146.914 234.466 146.786 234.324 146.786 234.324C146.786 234.324 146.936 234.443 147.213 234.693C147.484 234.95 147.902 235.314 148.469 235.768C149.601 236.672 151.367 237.923 153.898 239.018C156.419 240.093 159.74 241.011 163.652 240.935C165.595 240.886 167.697 240.605 169.741 239.773C170.762 239.366 171.751 238.792 172.637 238.05C173.516 237.297 174.287 236.363 174.744 235.238C175.204 234.122 175.41 232.856 175.261 231.598C175.124 230.346 174.588 229.095 173.629 228.208C172.672 227.319 171.315 226.887 169.959 226.954C168.603 227.014 167.234 227.518 166.126 228.392C165.021 229.273 164.192 230.524 163.679 231.903C163.163 233.287 162.946 234.805 162.978 236.332C163.056 239.394 164.104 242.511 165.974 245.152C167.829 247.797 170.456 250.014 173.567 251.338C176.683 252.645 180.212 253.136 183.707 252.743C187.181 252.338 190.729 251.207 193.634 249.037C195.061 247.946 196.297 246.52 196.927 244.818C197.546 243.125 197.577 241.161 196.836 239.494C196.471 238.663 195.883 237.944 195.163 237.415C194.435 236.894 193.564 236.592 192.678 236.479C190.899 236.279 189.038 236.818 187.677 237.951C186.297 239.084 185.425 240.742 185.016 242.458C184.616 244.189 184.652 245.994 185.071 247.697C185.897 251.126 187.884 254.103 189.982 256.756C192.113 259.395 194.682 261.633 197.624 262.975C200.552 264.303 203.85 264.696 206.791 263.901C209.746 263.146 212.158 260.995 213.333 258.396C213.925 257.103 214.208 255.681 214.088 254.314C213.999 252.942 213.443 251.663 212.662 250.602C211.082 248.504 208.473 247.239 206.083 247.674C204.903 247.885 203.806 248.425 202.959 249.205C202.101 249.975 201.447 250.919 200.963 251.904C200 253.887 199.66 256.014 199.764 257.954C199.962 261.878 201.487 265.059 203.107 267.261C204.745 269.485 206.462 270.831 207.675 271.615C208.287 272.005 208.766 272.284 209.102 272.446C209.43 272.62 209.595 272.721 209.595 272.721" fill="#FAFAF9"/>
<path d="M230.735 205.19C230.729 205.195 230.67 205.13 230.561 204.997C230.437 204.84 230.28 204.644 230.084 204.397C229.68 203.861 229.14 203.021 228.581 201.865C228.046 200.7 227.532 199.199 227.257 197.392C226.984 195.591 226.945 193.471 227.449 191.218C227.944 188.978 228.91 186.558 230.766 184.521C231.258 184.042 231.84 183.604 232.546 183.378C233.248 183.155 234.072 183.209 234.74 183.59C235.411 183.959 235.939 184.562 236.267 185.264C236.595 185.967 236.726 186.748 236.743 187.52C236.754 190.598 235.642 193.801 233.556 196.401C232.515 197.7 231.229 198.846 229.744 199.719C228.259 200.579 226.554 201.183 224.759 201.206C222.965 201.241 221.2 200.548 219.89 199.408C218.563 198.28 217.606 196.794 217.046 195.215C216.483 193.635 216.279 191.983 216.28 190.388C216.306 188.794 216.397 187.224 216.856 185.738C217.091 185.003 217.408 184.291 217.886 183.685C218.346 183.073 219.024 182.592 219.778 182.441C220.532 182.274 221.32 182.458 221.945 182.829C222.571 183.207 223.074 183.731 223.456 184.308C223.848 184.884 224.098 185.527 224.275 186.163C224.46 186.8 224.542 187.452 224.558 188.087C224.599 189.362 224.344 190.572 223.962 191.662C223.184 193.854 221.837 195.534 220.505 196.764C219.167 198.006 217.849 198.863 216.765 199.533C215.673 200.193 214.798 200.656 214.204 200.965C213.925 201.107 213.701 201.22 213.523 201.309C213.369 201.384 213.288 201.418 213.284 201.412C213.28 201.405 213.353 201.355 213.501 201.266C213.672 201.167 213.888 201.04 214.159 200.882C214.738 200.546 215.596 200.057 216.668 199.377C217.732 198.688 219.026 197.814 220.326 196.572C221.621 195.34 222.913 193.689 223.65 191.552C224.011 190.49 224.245 189.319 224.197 188.098C224.176 187.491 224.095 186.871 223.913 186.266C223.74 185.659 223.501 185.058 223.133 184.526C222.775 183.99 222.305 183.512 221.743 183.177C221.18 182.849 220.51 182.701 219.862 182.846C218.531 183.121 217.682 184.491 217.268 185.868C216.838 187.272 216.747 188.83 216.727 190.386C216.731 191.945 216.934 193.543 217.479 195.059C218.016 196.568 218.934 197.985 220.191 199.049C221.435 200.127 223.067 200.766 224.755 200.735C226.443 200.715 228.08 200.142 229.509 199.315C230.942 198.474 232.188 197.367 233.197 196.111C235.224 193.601 236.311 190.485 236.311 187.53C236.298 186.798 236.176 186.076 235.884 185.443C235.594 184.814 235.121 184.274 234.542 183.952C233.966 183.623 233.279 183.575 232.664 183.763C232.046 183.956 231.503 184.351 231.037 184.799C229.262 186.722 228.268 189.109 227.773 191.29C227.258 193.494 227.273 195.576 227.516 197.354C227.763 199.138 228.244 200.626 228.748 201.789C229.274 202.943 229.784 203.791 230.161 204.343C230.341 204.599 230.484 204.804 230.599 204.967C230.695 205.109 230.741 205.185 230.735 205.19" fill="#FAFAF9"/>
<path d="M209.171 194.552C209.171 194.552 209.171 226.693 217.185 229.738C238.985 238.021 265.055 236.116 274.228 235.245C275.326 234.475 276.595 233.536 278.039 232.361L281.071 229.825C281.071 229.825 295.447 232.579 295.258 233.338C295.069 234.097 289.648 235.852 284.082 234.595C284.082 234.595 282.887 236.782 285.408 238.014C289.074 239.804 302.062 245.324 304.121 246.572C305.953 247.684 307.655 249.511 305.597 249.636C303.542 249.761 292.628 247.058 292.628 247.058C292.628 247.058 307.001 250.316 306.432 252.396C306.039 253.831 302.05 254.136 292.759 251.033C292.759 251.033 304.579 253.806 305.705 255.191C308.251 258.321 293.995 255.125 293.995 255.125C303.962 257.452 303.911 256.912 303.879 258.313C303.856 259.361 301.532 259.552 295.98 259.065C293.493 258.846 290.933 258.898 287.98 258.952C285.584 258.994 282.928 259.038 279.841 258.936C279.841 258.936 190.828 274.857 182.718 235.413C178.346 214.151 179.086 206.3 178.21 192.563L209.171 194.552Z" fill="#C0776A"/>
<path d="M287.964 253.864C287.9 254.114 290.928 254.955 294.728 255.742C298.527 256.53 301.64 256.961 301.681 256.706C301.72 256.451 298.692 255.61 294.915 254.827C291.14 254.045 288.027 253.614 287.964 253.864Z" fill="#B85549"/>
<path d="M288.451 249.926C288.384 250.175 291.56 251.254 295.545 252.335C299.531 253.417 302.816 254.091 302.882 253.842C302.95 253.593 299.774 252.515 295.788 251.433C291.804 250.352 288.517 249.677 288.451 249.926Z" fill="#B85549"/>
<path d="M288.978 245.843C288.907 246.09 291.896 247.162 295.654 248.234C299.411 249.308 302.513 249.976 302.584 249.729C302.654 249.48 299.666 248.41 295.907 247.336C292.151 246.263 289.049 245.594 288.978 245.843" fill="#B85549"/>
<path d="M192.751 163.104C186.918 162.511 181.208 165.307 177.794 170.093C174.764 174.343 171.988 181.174 173.357 191.312C176.029 211.088 178.209 217.681 178.209 217.681L214.41 211.924L209.457 178.752C209.457 178.752 205.09 164.357 192.751 163.104Z" fill="#F03D5F"/>
<path d="M178.209 217.681C178.209 217.681 176.029 211.088 173.357 191.312C173.112 189.49 172.999 187.775 172.998 186.162C172.994 178.802 175.309 173.579 177.794 170.093C180.904 165.732 185.918 163.025 191.197 163.025C191.713 163.025 192.232 163.05 192.751 163.104C205.09 164.357 209.457 178.752 209.457 178.752L214.41 211.924L210.37 212.566L179.745 217.436L178.209 217.681" fill="#FFCD00"/>
<path d="M283.965 230.399C283.961 230.417 283.692 230.381 283.185 230.298C282.682 230.222 281.928 230.069 280.987 229.927C280.555 229.911 280.056 230.17 279.582 230.49C279.1 230.813 278.601 231.206 278.093 231.661C277.071 232.565 275.977 233.68 274.841 234.958L274.806 234.997L274.757 235.011C272.298 235.777 269.351 236.241 266.136 236.329C262.918 236.434 259.443 236.185 255.839 235.905C247.533 235.315 239.989 234.854 234.57 234.098C231.86 233.736 229.679 233.36 228.183 233.041C227.432 232.895 226.858 232.743 226.466 232.652C226.075 232.555 225.872 232.497 225.875 232.481C225.878 232.465 226.089 232.492 226.485 232.559C226.928 232.636 227.502 232.736 228.216 232.86C229.719 233.124 231.902 233.449 234.611 233.767C240.027 234.437 247.556 234.845 255.875 235.436C259.48 235.716 262.934 235.972 266.123 235.887C269.311 235.817 272.218 235.385 274.652 234.663L274.568 234.716C275.735 233.438 276.848 232.337 277.902 231.441C278.426 230.99 278.943 230.599 279.448 230.279C279.948 229.966 280.463 229.69 281.011 229.724C281.978 229.9 282.703 230.083 283.207 230.193C283.706 230.31 283.968 230.38 283.965 230.399" fill="#B85549"/>
<path d="M211.924 193.415C211.927 193.423 211.832 193.448 211.645 193.492C211.433 193.538 211.157 193.596 210.811 193.671C210.441 193.726 209.977 193.767 209.429 193.811C208.881 193.805 208.245 193.831 207.535 193.732C206.118 193.577 204.391 193.145 202.58 192.208C201.684 191.73 200.755 191.143 199.886 190.379C198.994 189.642 198.167 188.72 197.445 187.655C196.712 186.594 196.116 185.365 195.759 183.984C195.604 183.292 195.522 182.56 195.596 181.812C195.666 181.072 195.911 180.295 196.442 179.685C196.974 179.084 197.778 178.716 198.596 178.702C199.416 178.676 200.221 178.913 200.952 179.284C202.408 180.059 203.604 181.339 204.377 182.88C205.148 184.419 205.529 186.204 205.409 188.005C205.304 189.805 204.658 191.624 203.506 193.106C201.246 196.099 197.263 197.847 193.32 197.416C189.36 196.977 185.915 194.599 183.793 191.564C182.739 190.04 181.946 188.316 181.786 186.495C181.704 185.591 181.795 184.672 182.095 183.821C182.406 182.977 182.905 182.219 183.549 181.624C184.193 181.034 184.99 180.594 185.849 180.468C186.706 180.318 187.582 180.505 188.321 180.879C189.823 181.631 190.783 183.107 191.13 184.598C191.499 186.099 191.393 187.606 191.097 188.982C190.786 190.362 190.242 191.62 189.556 192.712C188.183 194.908 186.263 196.405 184.392 197.208C182.513 198.024 180.722 198.21 179.301 198.157C177.867 198.112 176.785 197.805 176.076 197.57C175.364 197.33 175.023 197.126 175.023 197.126C175.034 197.1 175.39 197.27 176.105 197.48C176.817 197.683 177.893 197.958 179.305 197.973C180.706 197.999 182.462 197.788 184.287 196.967C186.104 196.161 187.956 194.683 189.275 192.537C189.934 191.469 190.452 190.242 190.744 188.905C191.022 187.57 191.111 186.112 190.752 184.693C190.417 183.285 189.515 181.934 188.137 181.249C187.461 180.911 186.676 180.749 185.916 180.886C185.152 181 184.431 181.4 183.843 181.942C183.252 182.49 182.793 183.194 182.51 183.971C182.239 184.747 182.151 185.606 182.231 186.456C182.384 188.166 183.145 189.827 184.17 191.299C186.226 194.234 189.569 196.53 193.371 196.948C197.142 197.364 200.983 195.681 203.14 192.825C205.392 189.986 205.459 185.992 203.991 183.076C203.618 182.345 203.159 181.669 202.616 181.084C202.056 180.52 201.447 180.003 200.764 179.653C200.084 179.302 199.337 179.084 198.61 179.105C197.881 179.114 197.198 179.429 196.732 179.946C196.27 180.469 196.038 181.161 195.97 181.851C195.896 182.543 195.967 183.241 196.112 183.903C196.443 185.218 197.016 186.435 197.72 187.47C198.415 188.514 199.215 189.422 200.08 190.153C200.925 190.909 201.829 191.494 202.703 191.975C204.47 192.918 206.163 193.37 207.557 193.55C210.375 193.916 211.921 193.308 211.924 193.415" fill="#FAFAF9"/>
<path d="M192.884 93.147C191.583 89.4554 188.09 86.6416 184.218 86.1661C180.346 85.6907 176.28 87.5762 174.131 90.8447C172.76 92.93 172.17 95.4167 171.311 97.7623C170.451 100.107 169.178 102.48 166.989 103.67C164.429 105.062 161.066 104.582 158.737 106.339C156.151 108.289 156.082 112.575 158.254 114.983C160.426 117.39 164.203 117.909 167.208 116.705C166.579 118.643 165.944 120.624 165.979 122.66C166.015 124.698 166.848 126.837 168.573 127.909C170.318 128.995 172.641 128.767 174.455 127.801C176.268 126.836 177.661 125.238 178.905 123.599C179.268 125.015 179.64 126.455 180.394 127.708C181.147 128.96 182.35 130.021 183.79 130.244C185.556 130.517 187.33 129.458 188.354 127.987C189.377 126.516 189.774 124.7 189.999 122.921C190.557 118.519 190.196 114.021 189.151 109.709C188.481 106.947 187.525 104.12 188.053 101.327C188.581 98.5342 191.325 95.9084 194.03 96.7472" fill="#17282F"/>
<path d="M157.389 112.205C157.381 112.229 157.539 112.304 157.848 112.425C158.158 112.543 158.627 112.689 159.243 112.829C160.471 113.092 162.334 113.304 164.582 112.894C166.813 112.494 169.431 111.383 171.621 109.266C172.714 108.216 173.705 106.94 174.455 105.462C175.226 103.988 175.667 102.313 176.034 100.642C176.406 98.9683 176.736 97.3413 177.353 95.9004C177.955 94.4551 178.882 93.2457 180.042 92.4168C182.366 90.7229 185.174 90.4734 187.256 91.0175C189.38 91.549 190.864 92.6509 191.774 93.4671C192.694 94.296 193.089 94.8754 193.144 94.8329C193.164 94.8185 193.08 94.6648 192.899 94.3846C192.71 94.1116 192.416 93.7139 191.973 93.2592C191.1 92.358 189.613 91.1414 187.388 90.5114C185.201 89.8705 182.183 90.0621 179.645 91.8636C178.378 92.7404 177.334 94.08 176.69 95.6139C176.025 97.1442 175.686 98.8173 175.315 100.481C174.949 102.146 174.531 103.735 173.811 105.133C173.11 106.539 172.178 107.762 171.15 108.776C169.086 110.82 166.62 111.929 164.481 112.381C162.327 112.841 160.514 112.718 159.295 112.545C158.07 112.356 157.408 112.145 157.389 112.205" fill="#33535F"/>
<path d="M181.131 128.9C181.147 128.92 181.271 128.838 181.494 128.662C181.722 128.493 182.022 128.194 182.359 127.769C183.035 126.923 183.756 125.443 183.956 123.497C184.181 121.564 183.945 119.21 183.196 116.777C182.507 114.338 181.454 111.758 181.055 108.938C180.619 106.121 181.261 103.38 182.526 101.283C183.768 99.1628 185.564 97.7365 187.23 96.9329C188.902 96.1076 190.421 95.8455 191.458 95.7434C192.504 95.6521 193.092 95.6927 193.098 95.6313C193.103 95.5915 192.521 95.4523 191.443 95.4559C190.375 95.4722 188.787 95.6584 187.009 96.4583C185.241 97.2348 183.294 98.7028 181.945 100.93C180.571 103.117 179.862 106.078 180.325 109.038C180.747 111.993 181.835 114.582 182.545 116.972C183.313 119.343 183.586 121.584 183.438 123.446C183.31 125.315 182.704 126.738 182.126 127.601C181.546 128.468 181.081 128.846 181.131 128.9" fill="#33535F"/>
<path d="M241.258 111.773C248.315 95.3881 238.635 85.4063 232.333 81.8232C228.578 79.6891 224.12 79.2434 219.807 79.1395C215.55 79.0373 211.247 79.2299 207.126 80.3073C203.005 81.3839 199.051 83.3951 196.146 86.5217C190.986 92.0698 189.806 100.285 190.29 107.86C190.858 116.781 193.41 125.581 197.808 133.353C198.373 134.352 199.013 135.378 200.015 135.932C201.018 136.484 202.482 136.361 203.068 135.375" fill="#17282F"/>
<path d="M229.147 152.643L228.891 144.022C228.891 144.022 238.93 142.349 241.01 129.199C242.044 122.658 241.717 111.936 241.167 103.172C240.672 95.2822 233.741 89.3942 225.911 90.2258L203.186 92.6392C200.808 92.8914 199.018 94.9288 199.064 97.3296L202.085 153.779C202.471 160.995 208.412 166.646 215.609 166.646C223.248 166.646 229.376 160.308 229.147 152.643" fill="#C0776A"/>
<path d="M238.896 110.646C238.928 111.537 238.202 112.298 237.277 112.348C236.352 112.398 235.576 111.718 235.545 110.828C235.514 109.936 236.239 109.174 237.163 109.125C238.088 109.075 238.865 109.756 238.896 110.646" fill="#17282F"/>
<path d="M238.85 108.75C238.642 108.97 237.369 108.024 235.561 108.029C233.755 108.008 232.429 108.942 232.233 108.719C232.136 108.621 232.349 108.224 232.927 107.802C233.495 107.382 234.465 106.972 235.591 106.977C236.717 106.984 237.664 107.4 238.208 107.825C238.764 108.253 238.952 108.652 238.85 108.75" fill="#17282F"/>
<path d="M220.78 111.127C220.813 112.018 220.086 112.779 219.161 112.828C218.237 112.878 217.46 112.198 217.429 111.308C217.398 110.418 218.123 109.656 219.048 109.605C219.973 109.555 220.749 110.236 220.78 111.127Z" fill="#17282F"/>
<path d="M221.082 109.089C220.873 109.309 219.599 108.364 217.793 108.368C215.988 108.347 214.66 109.281 214.464 109.059C214.368 108.96 214.578 108.564 215.157 108.141C215.726 107.72 216.696 107.312 217.822 107.316C218.948 107.322 219.895 107.739 220.44 108.165C220.994 108.592 221.184 108.99 221.082 109.089Z" fill="#17282F"/>
<path d="M227.642 122.547C227.634 122.444 228.758 122.249 230.578 122.016C231.039 121.967 231.477 121.876 231.554 121.559C231.663 121.224 231.469 120.725 231.246 120.185C230.812 119.064 230.358 117.889 229.881 116.657C227.985 111.633 226.613 107.502 226.815 107.427C227.018 107.352 228.718 111.363 230.614 116.387C231.07 117.627 231.506 118.807 231.921 119.938C232.096 120.464 232.397 121.061 232.161 121.756C232.037 122.103 231.698 122.354 231.402 122.433C231.107 122.525 230.846 122.529 230.618 122.543C228.785 122.642 227.649 122.65 227.642 122.547" fill="#17282F"/>
<path d="M228.891 144.022C228.891 144.022 220.079 144.592 211.348 139.324C211.348 139.324 215.604 148.357 228.714 147.127L228.891 144.022Z" fill="#B85549"/>
<path d="M226.877 126.92C226.227 126.058 225.088 125.583 223.958 125.706C223.173 125.79 222.38 126.171 221.904 126.812C221.428 127.454 221.328 128.364 221.761 128.975C222.249 129.664 223.268 129.823 224.13 129.577C224.994 129.33 225.736 128.76 226.441 128.192C226.636 128.035 226.835 127.871 226.958 127.656C227.078 127.44 227.104 127.158 226.954 126.98" fill="#B85549"/>
<path d="M222.322 123.803C222.616 123.786 222.62 125.755 224.3 127.153C225.975 128.555 228.068 128.335 228.083 128.61C228.11 128.734 227.617 128.993 226.734 129.016C225.868 129.046 224.603 128.767 223.576 127.912C222.551 127.054 222.111 125.911 222.044 125.103C221.969 124.279 222.187 123.791 222.322 123.803" fill="#17282F"/>
<path d="M221.895 105.911C221.717 106.405 219.912 106.171 217.791 106.427C215.665 106.641 213.955 107.265 213.674 106.822C213.548 106.611 213.846 106.146 214.537 105.669C215.223 105.192 216.316 104.738 217.589 104.596C218.863 104.456 220.029 104.659 220.801 104.975C221.58 105.289 221.972 105.677 221.895 105.911" fill="#17282F"/>
<path d="M238.185 103.497C237.867 103.909 236.622 103.482 235.125 103.462C233.628 103.389 232.36 103.738 232.067 103.307C231.939 103.098 232.139 102.685 232.694 102.295C233.239 101.906 234.152 101.588 235.181 101.62C236.211 101.652 237.102 102.026 237.622 102.449C238.152 102.872 238.326 103.297 238.185 103.497" fill="#17282F"/>
<path d="M241.167 103.173C238.877 91.9578 235.762 96.396 232.247 91.0448C227.152 96.2251 215.416 102.196 208.259 103.369C207.528 103.489 206.758 103.599 206.163 104.041C205.059 104.864 204.973 106.459 204.978 107.838C204.99 111.733 204.916 115.665 204.024 119.455C203.131 123.245 201.351 126.924 198.427 129.483C194.108 120.343 193.677 109.709 195.609 99.7802C196.399 95.7244 197.737 91.4751 200.954 88.899C203.258 87.0541 206.235 86.3138 209.133 85.7796C216.292 84.4608 223.864 84.1426 230.679 86.7079C237.494 89.2732 242.785 92.4314 243.698 99.6807" fill="#17282F"/>
<path d="M191.665 95.2966C191.643 95.3418 192.162 95.6247 193.131 96.0992C193.606 96.3595 194.227 96.5801 194.95 96.8323C195.319 96.9615 195.705 97.0962 196.109 97.2372C196.535 97.3457 196.98 97.4569 197.442 97.5735C199.307 98.0733 201.595 98.3608 204.139 98.4964C206.688 98.5922 209.494 98.4141 212.4 97.9576C215.307 97.4813 218.003 96.6651 220.389 95.7702C221.556 95.2532 222.694 94.8265 223.679 94.2553C224.177 93.9895 224.66 93.731 225.127 93.4806C225.566 93.195 225.99 92.9193 226.398 92.6526C227.224 92.151 227.898 91.5905 228.49 91.1042C228.78 90.8683 229.055 90.6442 229.317 90.4299C229.539 90.2049 229.75 89.9925 229.949 89.7909C230.7 89.0162 231.095 88.5751 231.058 88.5399C230.944 88.4206 229.347 90.2103 226.118 92.2115C225.709 92.4601 225.285 92.7177 224.846 92.9844C224.38 93.2185 223.899 93.4598 223.404 93.7075C222.426 94.2462 221.298 94.6421 220.146 95.1339C217.788 95.9772 215.137 96.76 212.279 97.2282C209.423 97.6756 206.667 97.8727 204.16 97.8148C201.66 97.7181 199.405 97.4903 197.557 97.0637C193.84 96.2845 191.73 95.1519 191.665 95.2966" fill="#33535F"/>
<path d="M195.376 86.4358C195.344 86.4765 195.745 86.8019 196.505 87.3623C196.873 87.6633 197.371 87.9508 197.961 88.2689C198.262 88.4343 198.576 88.6079 198.902 88.7878C199.257 88.9387 199.626 89.096 200.008 89.2587C203.106 90.6173 207.75 91.5338 212.877 91.5627C218.01 91.5899 222.613 90.8586 225.874 90.1075C227.509 89.7405 228.812 89.3653 229.701 89.0707C230.59 88.7751 231.073 88.588 231.058 88.5401C231.024 88.4235 229.036 88.9812 225.769 89.5949C222.507 90.2105 217.943 90.8505 212.882 90.8234C207.828 90.7935 203.277 89.9764 200.2 88.7724C197.1 87.6145 195.464 86.3047 195.376 86.4358" fill="#33535F"/>
<path d="M235.632 83.5833C235.628 83.4947 235.18 83.4061 234.475 83.5842C233.775 83.7559 232.857 84.2621 232.145 85.1226C231.434 85.9858 231.112 86.9874 231.074 87.7087C231.032 88.4372 231.203 88.863 231.289 88.8503C231.497 88.8449 231.419 87.1112 232.712 85.5944C233.954 84.0361 235.666 83.7884 235.632 83.5833" fill="#33535F"/>
<path d="M167.958 97.7476C167.97 97.7413 167.871 97.5451 167.57 97.2721C167.275 96.9964 166.732 96.6647 165.953 96.5644C165.188 96.4604 164.175 96.5689 163.222 97.1809C162.254 97.7521 161.48 99.0546 161.632 100.509C161.767 101.933 162.637 103.434 164.144 104.244C165.674 105.057 167.717 104.802 169.242 103.707C170.01 103.167 170.681 102.427 171.116 101.529C171.556 100.634 171.748 99.6322 171.811 98.6397C171.948 96.6512 171.604 94.64 171.965 92.6939C172.701 88.7555 175.753 85.7256 178.961 84.5777C182.24 83.3746 185.546 84.2658 187.728 85.6642C189.965 87.0752 191.231 88.9164 191.876 90.2343C192.524 91.573 192.66 92.4091 192.737 92.3902C192.762 92.3847 192.736 92.1777 192.663 91.7845C192.598 91.3895 192.435 90.8155 192.137 90.1141C191.554 88.7221 190.313 86.7579 188.01 85.224C186.866 84.4674 185.465 83.8365 183.865 83.5373C182.27 83.2137 180.471 83.3547 178.735 83.935C175.302 85.1291 172.043 88.3117 171.241 92.5601C170.858 94.6852 171.22 96.7162 171.091 98.5918C171.036 99.5283 170.862 100.435 170.483 101.22C170.112 102.003 169.525 102.664 168.849 103.15C167.503 104.138 165.725 104.366 164.422 103.697C163.11 103.027 162.294 101.698 162.15 100.457C161.996 99.1875 162.607 98.0766 163.452 97.5252C164.284 96.9431 165.213 96.7949 165.922 96.8509C167.404 96.9784 167.905 97.8452 167.958 97.7476" fill="#17282F"/>
<path d="M202.359 103.676C202.361 103.726 202.846 103.765 203.725 103.785C204.603 103.805 205.874 103.807 207.445 103.75C210.571 103.62 214.987 103.306 219.565 101.648C224.149 99.978 227.663 97.0114 229.46 94.3765C230.374 93.0668 230.931 91.8899 231.219 91.0492C231.512 90.2095 231.597 89.7232 231.558 89.7124C231.415 89.6527 230.932 91.5961 229.04 94.0665C227.194 96.5386 223.758 99.3308 219.312 100.952C214.859 102.568 210.517 102.966 207.415 103.228C204.297 103.465 202.356 103.563 202.359 103.676" fill="#17282F"/>
<path d="M183.77 135.802C183.738 135.807 183.814 136.331 184.39 137.048C184.953 137.738 186.112 138.609 187.783 138.711C189.427 138.814 191.406 138.189 193.032 136.726C193.825 135.989 194.534 134.95 194.635 133.676C194.727 132.463 194.228 131.013 192.93 130.373C191.643 129.8 190.027 130.309 189.458 131.608C189.19 132.256 189.301 132.972 189.594 133.519C189.884 134.073 190.345 134.504 190.879 134.759C191.952 135.258 193.087 135.126 193.995 134.81C194.923 134.492 195.677 133.953 196.244 133.361C197.395 132.173 197.8 130.838 197.908 129.954C198.004 129.051 197.863 128.56 197.827 128.567C197.762 128.571 197.802 129.063 197.625 129.906C197.439 130.731 196.98 131.946 195.877 132.989C195.336 133.509 194.636 133.97 193.805 134.227C192.987 134.49 192.001 134.556 191.176 134.146C190.383 133.774 189.765 132.726 190.126 131.883C190.456 131.047 191.731 130.617 192.618 131.043C193.538 131.48 193.989 132.626 193.914 133.626C193.849 134.64 193.269 135.558 192.566 136.23C191.121 137.583 189.288 138.225 187.806 138.188C186.297 138.162 185.191 137.442 184.601 136.854C184.001 136.247 183.831 135.773 183.77 135.802" fill="#17282F"/>
<path d="M258.89 295.737C258.89 295.867 226.205 295.973 185.895 295.973C145.572 295.973 112.894 295.867 112.894 295.737C112.894 295.606 145.572 295.502 185.895 295.502C226.205 295.502 258.89 295.606 258.89 295.737Z" fill="#33535F"/>
<path d="M67.6825 243.261C70.8198 243.665 73.6158 245.654 75.4725 248.224C77.3295 250.795 78.3269 253.904 78.8593 257.034C79.8898 263.09 78.2791 269.974 76.0581 275.698C69.8962 272.819 66.5955 265.632 65.1489 261.879C62.8628 255.949 62.3184 243.838 67.6825 243.261" fill="#FFCD00"/>
<path d="M84.5673 283.712C82.8236 280.627 83.1482 276.592 85.028 273.59C86.9075 270.586 90.1707 268.597 93.6296 267.873C95.2287 267.538 97.0519 267.505 98.3214 268.537C99.5072 269.503 99.9006 271.217 99.5972 272.719C99.2947 274.222 98.3997 275.54 97.3832 276.684C93.897 280.609 89.8049 283.763 84.5673 283.712" fill="#FFCD00"/>
<path d="M83.4486 303.526C83.4173 303.528 83.3614 303.081 83.2766 302.272C83.1869 301.38 83.0708 300.227 82.9316 298.843C82.69 295.964 82.2627 291.863 83.2769 287.467C84.2656 283.088 86.3723 279.462 88.4234 277.371C89.4363 276.311 90.3782 275.58 91.0672 275.143C91.4021 274.909 91.6911 274.774 91.8757 274.665C92.0648 274.564 92.1674 274.518 92.1746 274.532C92.2377 274.618 90.5899 275.437 88.6538 277.585C86.699 279.692 84.6824 283.262 83.7092 287.567C82.7135 291.873 83.081 295.931 83.2446 298.818C83.3402 300.268 83.4177 301.445 83.4489 302.259C83.4806 303.072 83.4785 303.524 83.4486 303.526" fill="#17282F"/>
<path d="M68.9083 252.448C68.9231 252.443 68.9956 252.618 69.1204 252.955C69.2562 253.34 69.4303 253.832 69.6459 254.44C70.0946 255.733 70.7197 257.612 71.473 259.938C72.9804 264.593 74.9732 271.052 77.0134 278.234C79.0521 285.418 80.7512 291.963 81.9143 296.714C82.4967 299.091 82.9519 301.018 83.2491 302.353C83.3859 302.986 83.4963 303.496 83.5825 303.893C83.6543 304.247 83.6845 304.434 83.6694 304.437C83.6546 304.441 83.5951 304.261 83.496 303.915C83.3886 303.522 83.2515 303.018 83.0813 302.394C82.7198 301.018 82.2214 299.118 81.6108 296.793C80.37 292.062 78.6241 285.536 76.587 278.355C74.5479 271.179 72.6044 264.71 71.174 260.034C70.4717 257.734 69.8977 255.856 69.4813 254.495C69.2984 253.875 69.1507 253.374 69.035 252.984C68.9378 252.637 68.8939 252.452 68.9083 252.448Z" fill="#17282F"/>
<path d="M77.0884 289.758C73.9217 282.987 67.3083 277.96 59.9605 276.734C58.0894 276.421 55.7938 276.529 54.7971 278.149C53.7986 279.772 54.7384 281.891 55.8934 283.405C60.698 289.708 69.5444 292.571 77.1113 290.273" fill="#FFCD00"/>
<path d="M62.3625 282.062C62.3674 282.033 62.7846 282.089 63.5375 282.216C63.9149 282.277 64.3763 282.355 64.899 282.504C65.4209 282.653 66.0329 282.768 66.6729 283.013C67.3198 283.238 68.0347 283.468 68.7652 283.812C69.5148 284.112 70.2758 284.516 71.0745 284.947C72.6477 285.848 74.2993 286.99 75.8405 288.416C77.3686 289.859 78.627 291.427 79.6276 292.945C80.1049 293.72 80.561 294.454 80.9014 295.189C81.2873 295.901 81.5574 296.605 81.8141 297.242C82.0934 297.87 82.2362 298.479 82.4085 298.996C82.5837 299.512 82.6804 299.973 82.7564 300.349C82.9146 301.1 82.9877 301.516 82.9578 301.521C82.8604 301.546 82.558 299.869 81.5233 297.36C81.2514 296.739 80.9693 296.053 80.575 295.358C80.2255 294.641 79.7647 293.926 79.2865 293.171C78.2837 291.691 77.0394 290.159 75.5391 288.743C74.0249 287.342 72.4096 286.211 70.8727 285.304C70.0919 284.87 69.3491 284.459 68.6165 284.149C67.9025 283.795 67.2033 283.552 66.5709 283.311C64.0194 282.405 62.3431 282.159 62.3625 282.062" fill="#17282F"/>
<path d="M286.634 9.00506C272.974 8.08308 259.047 14.7783 251.2 26.0401C243.353 37.3018 241.864 52.7315 247.41 65.2958C252.05 75.8064 261.039 84.0265 265.026 94.8028C267.76 102.192 267.962 110.342 270.745 117.714C276.461 132.86 293.916 142.499 309.719 139.238C319.209 137.278 327.743 131.324 337.413 130.72C340.911 130.501 344.571 130.957 348.201 131.414C355.345 132.311 362.374 133.209 367.822 128.967C373.564 124.495 374.543 115.908 372.461 108.918C370.381 101.927 365.895 95.9644 362.213 89.6732C358.533 83.3829 355.535 76.1101 356.9 68.9439C358.137 62.4484 362.721 57.1832 365.607 51.2382C371.011 40.1012 370.027 26.1033 363.118 15.8395C356.21 5.57473 343.642 -0.564594 331.334 0.313098C323.084 0.901541 315.351 4.35084 307.415 6.68653C299.478 9.02222 295.516 9.28256 286.634 9.00506" fill="#F5F5F5"/>
<path d="M306.422 35.5342C306.422 35.5342 291.158 35.3869 285.903 48.6942C280.649 62.0024 286.669 68.4364 289.021 72.3521C291.374 76.2669 297.681 84.7826 297.734 92.8057L318.241 92.6764C318.241 92.6764 319.296 82.8329 325.426 72.5853C331.556 62.3368 330.826 54.8624 329.153 50.399C327.478 45.9355 322.028 34.8762 306.422 35.5342Z" fill="#FFCD00"/>
<path d="M311.076 92.1021C311.076 92.1021 311.051 91.9946 311.016 91.7821C310.981 91.5571 310.933 91.2425 310.871 90.8376C310.752 89.9924 310.578 88.7694 310.355 87.2002C309.93 84.0384 309.298 79.4601 308.9 73.7628C308.807 72.3391 308.721 70.845 308.681 69.2866C308.645 67.7292 308.593 66.1067 308.7 64.4227C308.81 62.7469 309.099 60.9834 309.891 59.3437C310.681 57.7311 311.988 56.2216 313.793 55.4957C315.584 54.7419 317.847 55.1658 319.301 56.6039C320.014 57.3234 320.49 58.3457 320.456 59.4006C320.441 60.4518 320.028 61.4724 319.391 62.3058C318.761 63.1527 317.884 63.8008 316.933 64.2582C315.982 64.7255 314.952 65.0139 313.913 65.2326C311.831 65.6529 309.685 65.8744 307.509 65.9196C305.333 65.9467 303.181 65.8862 301.075 65.5436C300.026 65.361 298.994 65.0771 298.034 64.6297C297.072 64.185 296.199 63.5586 295.497 62.7812C294.796 62.0066 294.266 61.0656 294.053 60.046C293.827 59.0246 293.994 57.9462 294.442 57.036C294.888 56.1258 295.637 55.3475 296.583 54.985C297.528 54.6117 298.596 54.7292 299.466 55.1477C300.344 55.5644 301.069 56.2315 301.6 57.0062C302.132 57.788 302.447 58.6712 302.652 59.5507C303.05 61.3241 303.023 63.0768 303.115 64.7463C303.256 68.0971 303.388 71.2183 303.509 74.0692C303.74 79.7602 303.927 84.3692 304.057 87.57C304.114 89.1536 304.159 90.3883 304.19 91.2407C304.201 91.6511 304.21 91.9684 304.217 92.1961C304.221 92.4113 304.215 92.5225 304.215 92.5225C304.215 92.5225 304.2 92.4122 304.185 92.197C304.171 91.9702 304.152 91.6529 304.127 91.2443C304.082 90.3919 304.018 89.1581 303.935 87.5754C303.781 84.3756 303.56 79.7683 303.287 74.0792C303.154 71.2282 303.009 68.1079 302.854 64.7581C302.757 63.0858 302.775 61.3368 302.383 59.6139C302.181 58.7588 301.871 57.9055 301.366 57.168C300.86 56.4322 300.166 55.7995 299.343 55.4117C298.526 55.0221 297.548 54.9209 296.688 55.2625C295.827 55.5934 295.129 56.3147 294.713 57.1689C294.293 58.0258 294.139 59.0291 294.352 59.9827C294.552 60.94 295.055 61.8321 295.726 62.5733C297.074 64.0874 299.078 64.8918 301.129 65.2335C303.195 65.5689 305.347 65.6312 307.502 65.6032C309.66 65.5589 311.791 65.3384 313.85 64.9253C314.873 64.7102 315.878 64.4272 316.798 63.978C317.718 63.5342 318.547 62.9186 319.146 62.1178C319.75 61.3277 320.137 60.3678 320.151 59.397C320.183 58.4217 319.751 57.4925 319.087 56.8173C317.728 55.4695 315.59 55.0555 313.899 55.7669C312.182 56.4512 310.91 57.9019 310.138 59.4666C309.367 61.0529 309.074 62.783 308.96 64.4408C308.849 66.1049 308.894 67.7256 308.924 69.2803C308.957 70.835 309.036 72.3256 309.122 73.7483C309.492 79.4375 310.09 84.0176 310.475 87.184C310.673 88.7559 310.828 89.9825 310.934 90.8285C310.983 91.2362 311.021 91.5517 311.048 91.7776C311.072 91.9919 311.076 92.1021 311.076 92.1021" fill="#17282F"/>
<path d="M297.728 92.5086L318.306 92.1869L318.525 105.233L312.553 112.395L304.66 112.735L297.978 104.72L297.728 92.5086Z" fill="#DADBD8"/>
<path d="M312.553 112.396C311.49 111.318 309.937 110.635 308.429 110.72C306.92 110.805 305.461 111.566 304.526 112.757L312.553 112.396" fill="#33535F"/>
<path d="M317.976 104.166C317.964 104.188 317.703 104.062 317.231 103.842C316.759 103.621 316.067 103.319 315.192 103.009C313.448 102.382 310.912 101.79 308.078 101.849C305.244 101.907 302.734 102.606 301.018 103.305C300.156 103.652 299.478 103.982 299.015 104.222C298.553 104.462 298.297 104.598 298.284 104.578C298.274 104.561 298.508 104.389 298.956 104.114C299.402 103.84 300.071 103.475 300.932 103.099C302.645 102.338 305.189 101.593 308.072 101.534C310.953 101.471 313.526 102.111 315.269 102.798C316.144 103.14 316.828 103.475 317.286 103.731C317.745 103.987 317.985 104.15 317.976 104.166" fill="#17282F"/>
<path d="M318.004 100.999C317.992 101.02 317.731 100.894 317.258 100.674C316.787 100.453 316.095 100.152 315.219 99.8409C313.475 99.2145 310.94 98.6215 308.106 98.6821C305.271 98.7399 302.762 99.4386 301.046 100.136C300.184 100.484 299.505 100.813 299.043 101.055C298.58 101.294 298.325 101.431 298.312 101.41C298.301 101.394 298.535 101.221 298.983 100.946C299.43 100.672 300.099 100.308 300.96 99.9304C302.673 99.1711 305.217 98.4245 308.099 98.3657C310.981 98.3042 313.553 98.9433 315.297 99.6303C316.173 99.9719 316.855 100.307 317.313 100.564C317.773 100.819 318.014 100.983 318.004 100.999" fill="#17282F"/>
<path d="M317.846 97.9841C317.835 98.0058 317.573 97.8792 317.102 97.6596C316.629 97.439 315.938 97.1371 315.062 96.8262C313.319 96.1998 310.782 95.6077 307.949 95.6683C305.114 95.7261 302.604 96.4239 300.888 97.1227C300.026 97.4698 299.348 97.7997 298.886 98.0402C298.423 98.2797 298.168 98.4162 298.154 98.3954C298.145 98.3791 298.379 98.2065 298.826 97.9326C299.273 97.6578 299.942 97.2935 300.802 96.9157C302.516 96.1564 305.059 95.4097 307.942 95.3519C310.823 95.2895 313.397 95.9286 315.139 96.6165C316.015 96.9573 316.699 97.2935 317.157 97.5493C317.615 97.8051 317.856 97.9678 317.846 97.9841" fill="#17282F"/>
<path d="M294.716 72.5771C294.352 72.5771 293.851 72.4271 293.238 72.1089C292.215 71.582 290.925 70.5325 289.659 68.9172C288.392 67.3083 287.211 65.0973 286.504 62.4182C285.793 59.7489 285.61 56.5925 286.292 53.38C287.01 50.1739 288.491 47.3817 290.248 45.2557C292.007 43.1171 294 41.6048 295.821 40.6747C297.642 39.7383 299.252 39.327 300.4 39.2773C300.506 39.2719 300.608 39.27 300.705 39.27C301.669 39.27 302.233 39.5042 302.346 39.8739C302.609 40.7579 300.689 41.9908 298.4 44.322C297.249 45.4781 296.02 46.9415 294.937 48.696C293.851 50.4459 292.954 52.505 292.449 54.7332C291.98 56.9685 291.937 59.2147 292.196 61.2603C292.449 63.3076 292.956 65.1525 293.521 66.6864C294.63 69.7642 295.861 71.6904 295.254 72.3828C295.141 72.5103 294.959 72.5771 294.716 72.5771" fill="#F5E088"/>
<path d="M298.967 82.8115C298.955 82.8115 298.943 82.8115 298.931 82.8106C297.345 82.7898 296.08 81.3562 296.103 79.609C296.126 77.8762 297.41 76.4842 298.979 76.4842C298.991 76.4842 299.003 76.4842 299.014 76.4842C300.599 76.505 301.865 77.9395 301.841 79.6849C301.819 81.4195 300.534 82.8115 298.967 82.8115" fill="#F5E088"/>
<path d="M281.81 40.3604C281.757 40.43 279.145 38.5364 275.977 36.1302C272.808 33.724 270.282 31.7173 270.335 31.6477C270.388 31.5781 272.998 33.4718 276.167 35.878C279.335 38.2842 281.862 40.2908 281.81 40.3604Z" fill="#17282F"/>
<path d="M286.123 34.6212C286.056 34.6773 284.962 33.4263 283.679 31.8282C282.397 30.231 281.414 28.8905 281.482 28.8362C281.549 28.7811 282.643 30.0321 283.925 31.6302C285.206 33.2274 286.191 34.567 286.123 34.6212Z" fill="#17282F"/>
<path d="M295.511 33.3006C295.429 33.3286 294.386 30.418 293.18 26.8015C291.976 23.1832 291.066 20.2283 291.149 20.2003C291.231 20.1732 292.274 23.0828 293.479 26.7012C294.684 30.3177 295.594 33.2735 295.511 33.3006" fill="#17282F"/>
<path d="M307.05 30.8017C306.964 30.8125 306.688 29.3392 306.436 27.5088C306.183 25.6784 306.048 24.1851 306.134 24.1734C306.22 24.1616 306.495 25.635 306.748 27.4654C307.001 29.2958 307.136 30.789 307.05 30.8017Z" fill="#17282F"/>
<path d="M318.361 34.7235C318.277 34.7 319.151 31.2589 320.313 27.0376C321.476 22.8155 322.486 19.4123 322.57 19.4358C322.653 19.4593 321.779 22.8995 320.617 27.1217C319.455 31.3429 318.445 34.747 318.361 34.7235" fill="#17282F"/>
<path d="M327.901 39.4529C327.828 39.405 328.686 37.965 329.816 36.2359C330.947 34.5076 331.922 33.1463 331.995 33.1933C332.067 33.2421 331.21 34.6821 330.08 36.4103C328.949 38.1386 327.974 39.5008 327.901 39.4529Z" fill="#17282F"/>
<path d="M343.005 37.4744C343.056 37.5449 340.406 39.5516 337.085 41.9569C333.765 44.3622 331.031 46.2532 330.981 46.1827C330.93 46.1122 333.58 44.1055 336.902 41.7002C340.221 39.2958 342.955 37.403 343.005 37.4744Z" fill="#17282F"/>
</svg>
